<?xml version="1.0" encoding="UTF-8"?>
<svg id="Layer_2" xmlns="http://www.w3.org/2000/svg" xmlns:xlink="http://www.w3.org/1999/xlink" viewBox="0 0 60 60">
  <defs>
    <style>
      .cls-1, .cls-2, .cls-3 {
        fill: none;
      }

      .cls-4 {
        clip-path: url(#clippath-1);
      }

      .cls-2, .cls-3 {
        clip-rule: evenodd;
      }

      .cls-5 {
        clip-path: url(#clippath-2);
      }

      .cls-3 {
        clip-path: url(#clippath);
      }

      .cls-6 {
        fill: #7823dc;
        fill-rule: evenodd;
      }
    </style>
    <clipPath id="clippath">
      <polygon class="cls-2" points="0 60 60 60 60 0 0 0 0 60 0 60"/>
    </clipPath>
    <clipPath id="clippath-1">
      <polygon class="cls-3" points="0 0 60 0 60 60 0 60 0 0 0 0"/>
    </clipPath>
    <clipPath id="clippath-2">
      <polygon class="cls-1" points="0 60 60 60 60 0 0 0 0 60 0 60"/>
    </clipPath>
  </defs>
  <g id="Layer_1-2" data-name="Layer_1">
    <g class="cls-4">
      <g class="cls-5">
        <path class="cls-6" d="M38.42,39.97L52.91,5.79h-8.15l-18.12,31.11V13.02H8.34L1.81,37.62l5.62,11.21h3.99v-3.62h-1.81l-3.81-8.14.54-1.99h12.5v-18.09h-7.79l.18-.54h12.14v32.38h21.56v-3.62h-17.94v-1.63h32.8v-3.62h-21.38ZM46.93,9.59h.54l-.18.36-1.09.9.72-1.27h0ZM15.22,20.62v10.85h-7.97l2.9-10.85h5.07ZM44.4,16.64l-1.09,2.71-.36-1.63,1.45-1.09h0ZM40.05,21.52l.36,1.99-2.9,2.17,2.54-4.16h0ZM29.36,39.97l2.54-4.34,1.81,4.34h-4.35ZM34.61,32.74l4.53-3.62-3.08,7.42-1.45-3.8h0Z"/>
        <polygon class="cls-6" points="56.9 45.22 59.8 45.22 59.8 48.84 56.9 48.84 56.9 45.22 56.9 45.22 56.9 45.22"/>
        <path class="cls-6" d="M51.1,11.94v12.48h0v3.62c1.09,0,1.99.9,1.99,2.17,0,1.09-.91,1.99-2.17,1.99-1.09,0-1.99-.9-1.99-1.99h-3.62c0,3.07,2.54,5.61,5.62,5.61s5.62-2.53,5.62-5.61c0-1.63-.72-3.26-1.99-4.34v-13.93h-3.44Z"/>
        <path class="cls-6" d="M50.74,44.13c-3.08,0-5.62,2.53-5.62,5.61s2.54,5.61,5.62,5.61,5.62-2.53,5.62-5.61h0c.18-3.07-2.36-5.43-5.62-5.61h0ZM50.74,51.91c-1.09,0-1.99-.9-1.99-1.99s.91-1.99,1.99-1.99,1.99.9,1.99,1.99h0c.18,1.09-.72,1.99-1.99,1.99h0Z"/>
        <path class="cls-6" d="M17.21,44.13c-3.08,0-5.62,2.53-5.62,5.61s2.54,5.61,5.62,5.61,5.62-2.53,5.62-5.61h0c0-3.07-2.54-5.43-5.62-5.61h0ZM17.21,51.91c-1.09,0-1.99-.9-1.99-1.99s.91-1.99,1.99-1.99,1.99.9,1.99,1.99h0c0,1.09-.91,1.99-1.99,1.99h0Z"/>
      </g>
    </g>
  </g>
</svg>