<?xml version="1.0" encoding="UTF-8"?>
<svg id="Layer_2" xmlns="http://www.w3.org/2000/svg" xmlns:xlink="http://www.w3.org/1999/xlink" viewBox="0 0 60 60">
  <defs>
    <style>
      .cls-1, .cls-2, .cls-3 {
        fill: none;
      }

      .cls-4 {
        clip-path: url(#clippath-1);
      }

      .cls-2, .cls-3 {
        clip-rule: evenodd;
      }

      .cls-5 {
        clip-path: url(#clippath-2);
      }

      .cls-3 {
        clip-path: url(#clippath);
      }

      .cls-6 {
        fill: #7823dc;
      }
    </style>
    <clipPath id="clippath">
      <polygon class="cls-2" points="0 60 60 60 60 0 0 0 0 60 0 60"/>
    </clipPath>
    <clipPath id="clippath-1">
      <polygon class="cls-3" points="0 0 60 0 60 60 0 60 0 0 0 0"/>
    </clipPath>
    <clipPath id="clippath-2">
      <polygon class="cls-1" points="0 60 60 60 60 0 0 0 0 60 0 60"/>
    </clipPath>
  </defs>
  <g id="Layer_1-2" data-name="Layer_1">
    <g class="cls-4">
      <g class="cls-5">
        <path class="cls-6" d="M14.36,48.94c0,.96-.8,1.75-1.76,1.75s-1.76-.8-1.76-1.75.8-1.75,1.76-1.75,1.76.8,1.76,1.75h0Z"/>
        <path class="cls-6" d="M21.55,48.94c0,.96-.8,1.75-1.76,1.75s-1.76-.8-1.76-1.75.8-1.75,1.76-1.75,1.76.8,1.76,1.75h0Z"/>
        <path class="cls-6" d="M28.9,48.94c0,.96-.8,1.75-1.76,1.75s-1.76-.8-1.76-1.75.8-1.75,1.76-1.75,1.76.8,1.76,1.75h0Z"/>
        <path class="cls-6" d="M36.25,48.94c0,.96-.8,1.75-1.76,1.75s-1.76-.8-1.76-1.75.8-1.75,1.76-1.75,1.76.8,1.76,1.75h0Z"/>
        <polygon class="cls-6" points="30.81 27.09 34.33 27.09 34.33 30.76 30.81 30.76 30.81 27.09 30.81 27.09 30.81 27.09"/>
        <path class="cls-6" d="M57.01,36.02l-8.15-21.37-7.99-5.26-15.82,1.75-7.67,10.37h-1.28v1.75H5.25v14.51h7.35v3.67h-3.67c-3.99,0-7.35,3.19-7.35,7.34s3.2,7.34,7.35,7.34h29.08c3.99,0,7.35-3.19,7.35-7.34s-3.2-7.34-7.35-7.34h-3.67v-3.67h7.35v-12.92l-5.43-7.18h-4.63l-5.75,5.42h-2.4v-1.75h-1.6l5.27-6.86,17.09-1.75,9.11,23.44v2.39c1.6,0,2.88,1.28,2.88,3.03.16,1.75-1.28,3.35-3.04,3.35-.48,0-.96,0-1.44-.16l-.96,3.51c.8.16,1.44.32,2.24.32,1.44,0,3.04-.48,4.15-1.44,1.6-1.44,2.72-3.51,2.72-5.58,0-2.23-1.12-4.31-2.88-5.58h0ZM38,45.27c2.08,0,3.67,1.59,3.67,3.67s-1.6,3.67-3.67,3.67H8.93c-2.08,0-3.67-1.59-3.67-3.67s1.6-3.67,3.67-3.67h29.08ZM16.11,41.6v-3.67h14.54v3.67h-14.54ZM27.78,27.09l5.75-5.42h4.47v12.76H8.93v-7.34h18.85Z"/>
      </g>
    </g>
  </g>
</svg>