<?xml version="1.0" encoding="UTF-8"?>
<svg id="Layer_2" xmlns="http://www.w3.org/2000/svg" xmlns:xlink="http://www.w3.org/1999/xlink" viewBox="0 0 60 60">
  <defs>
    <style>
      .cls-1, .cls-2, .cls-3 {
        fill: none;
      }

      .cls-4 {
        clip-path: url(#clippath-1);
      }

      .cls-2, .cls-3 {
        clip-rule: evenodd;
      }

      .cls-5 {
        clip-path: url(#clippath-2);
      }

      .cls-3 {
        clip-path: url(#clippath);
      }

      .cls-6 {
        fill: #7823dc;
      }
    </style>
    <clipPath id="clippath">
      <polygon class="cls-2" points="0 60 60 60 60 0 0 0 0 60 0 60"/>
    </clipPath>
    <clipPath id="clippath-1">
      <polygon class="cls-3" points="0 0 60 0 60 60 0 60 0 0 0 0"/>
    </clipPath>
    <clipPath id="clippath-2">
      <polygon class="cls-1" points="0 60 60 60 60 0 0 0 0 60 0 60"/>
    </clipPath>
  </defs>
  <g id="Layer_1-2" data-name="Layer_1">
    <g class="cls-4">
      <g class="cls-5">
        <path class="cls-6" d="M59.8,34.37h-3.62v7.24h-10.96l-22.72-5.41,22.81-5.23v-4.03l-21.82-5.21,23.7-5.44h7.19V1.81H7.25v14.47h23.74l-14.68,3.36v4.07l21.73,5.17-21.73,4.99v4.54l13.3,3.17H5.44v-7.23H1.81v18.09h7.3c0,.16-.05.33-.05.49,0,3.71,3.03,6.75,6.76,6.75s6.76-3.02,6.76-6.75c0-.16-.04-.33-.05-.49h16.58c0,.16-.05.33-.05.49,0,3.71,3.03,6.75,6.76,6.75s6.76-3.02,6.76-6.75c0-.16-.04-.33-.05-.49h7.3v-18.09l-.02.02h0ZM50.74,12.66h-3.62v-7.24h3.62v7.24h0ZM43.49,12.66h-3.62v-7.24h3.62v7.24h0ZM36.24,12.66h-3.62v-7.24h3.62v7.24h0ZM10.87,5.43h3.62v7.24h-3.62v-7.24h0ZM18.12,5.43h3.62v7.24h-3.62v-7.24h0ZM25.37,5.43h3.62v7.24h-3.62v-7.24h0ZM18.94,52.94c0,1.72-1.4,3.13-3.13,3.13s-3.13-1.39-3.13-3.13c0-.16.02-.33.05-.49.24-1.48,1.52-2.62,3.08-2.62s2.84,1.14,3.08,2.62c.02.16.05.33.05.49h0ZM48.93,52.94c0,1.72-1.4,3.13-3.13,3.13s-3.13-1.39-3.13-3.13c0-.16.02-.33.05-.49.24-1.48,1.52-2.62,3.08-2.62s2.84,1.14,3.08,2.62c.02.16.05.33.05.49h0ZM56.17,48.84h-5.07c-1.23-1.59-3.15-2.62-5.31-2.62s-4.08,1.05-5.31,2.62h-19.37c-1.23-1.59-3.15-2.62-5.31-2.62s-4.08,1.05-5.31,2.62h-5.07v-3.62h50.74v3.62h.02Z"/>
      </g>
    </g>
  </g>
</svg>