<?xml version="1.0" encoding="UTF-8"?>
<svg id="Layer_2" xmlns="http://www.w3.org/2000/svg" xmlns:xlink="http://www.w3.org/1999/xlink" viewBox="0 0 59.04 60">
  <defs>
    <style>
      .cls-1, .cls-2, .cls-3 {
        fill: none;
      }

      .cls-4 {
        clip-path: url(#clippath-1);
      }

      .cls-2, .cls-3 {
        clip-rule: evenodd;
      }

      .cls-5 {
        clip-path: url(#clippath-2);
      }

      .cls-3 {
        clip-path: url(#clippath);
      }

      .cls-6 {
        fill: #7823dc;
      }
    </style>
    <clipPath id="clippath">
      <polygon class="cls-2" points="0 60 59.04 60 59.04 0 0 0 0 60 0 60"/>
    </clipPath>
    <clipPath id="clippath-1">
      <polygon class="cls-3" points="0 0 59.04 0 59.04 60 0 60 0 0 0 0"/>
    </clipPath>
    <clipPath id="clippath-2">
      <polygon class="cls-1" points="0 60 59.04 60 59.04 0 0 0 0 60 0 60"/>
    </clipPath>
  </defs>
  <g id="Layer_1-2" data-name="Layer_1">
    <g class="cls-4">
      <g class="cls-5">
        <path class="cls-6" d="M47.14,59.3l-26.41-26.79h-10.06L1.55,23.26l4.24-8.61,2.99,3.03,6.29,4.15,2.99-3.03-4.09-6.38-3.14-2.87,8.49-4.31,9.12,9.25v10.37l26.41,26.79-7.7,7.65h0ZM12.08,28.84h10.22l24.84,25.36,2.52-2.55-24.84-25.36v-10.37l-6.13-6.22-1.89.8,5.66,8.77-7.07,7.34-8.49-5.9-.94,1.75,6.13,6.38h0Z"/>
        <path class="cls-6" d="M38.81,33.15l-7.55-7.65,5.03-5.1,6.29-9.25,9.28-6.06,7.07,7.34-5.97,9.25-8.96,6.54-5.19,4.94h0ZM36.29,25.49l2.52,2.55,2.83-2.87,8.65-6.22,4.09-6.22-2.99-3.03-6.13,4.15-6.29,8.93-2.67,2.71h0Z"/>
        <path class="cls-6" d="M13.66,58.66l-7.55-7.65,15.41-15.63,7.55,7.65-15.41,15.63h0ZM11.14,51.01l2.52,2.55,10.38-10.53-2.52-2.55-10.38,10.53h0Z"/>
      </g>
    </g>
  </g>
</svg>