<?xml version="1.0" encoding="UTF-8"?>
<svg id="Layer_2" xmlns="http://www.w3.org/2000/svg" xmlns:xlink="http://www.w3.org/1999/xlink" viewBox="0 0 59.76 59.76">
  <defs>
    <style>
      .cls-1, .cls-2, .cls-3 {
        fill: none;
      }

      .cls-4 {
        clip-path: url(#clippath-1);
      }

      .cls-2, .cls-3 {
        clip-rule: evenodd;
      }

      .cls-5 {
        clip-path: url(#clippath-2);
      }

      .cls-3 {
        clip-path: url(#clippath);
      }

      .cls-6 {
        fill: #7823dc;
      }
    </style>
    <clipPath id="clippath">
      <polygon class="cls-2" points="0 59.76 59.76 59.76 59.76 0 0 0 0 59.76 0 59.76"/>
    </clipPath>
    <clipPath id="clippath-1">
      <polygon class="cls-3" points="0 0 59.76 0 59.76 59.76 0 59.76 0 0 0 0"/>
    </clipPath>
    <clipPath id="clippath-2">
      <polygon class="cls-1" points="0 59.76 59.76 59.76 59.76 0 0 0 0 59.76 0 59.76"/>
    </clipPath>
  </defs>
  <g id="Layer_1-2" data-name="Layer_1">
    <g class="cls-4">
      <g class="cls-5">
        <polygon class="cls-6" points="1.79 23.38 1.8 52.23 5.41 52.24 5.39 48.59 5.41 27.02 55.95 27.02 55.94 48.59 55.95 52.24 59.56 52.24 59.55 23.38 1.79 23.38 1.79 23.38 1.79 23.38"/>
        <path class="cls-6" d="M30.68,34.18c9.97.04,18.03,8.11,18.05,18.06h3.61c0-11.94-9.7-21.62-21.66-21.62s-21.66,9.68-21.66,21.62h3.61c.01-9.95,8.08-18.02,18.05-18.06h0Z"/>
        <polygon class="cls-6" points="1.8 16.23 59.54 16.23 59.54 19.82 1.8 19.82 1.8 16.23 1.8 16.23"/>
        <polygon class="cls-6" points="1.8 19.77 5.41 19.77 5.41 23.37 1.8 23.37 1.8 19.77 1.8 19.77"/>
        <polygon class="cls-6" points="12.63 19.77 16.24 19.77 16.24 23.37 12.63 23.37 12.63 19.77 12.63 19.77"/>
        <polygon class="cls-6" points="1.8 55.85 12.63 55.85 12.63 59.45 1.8 59.45 1.8 55.85 1.8 55.85"/>
        <polygon class="cls-6" points="48.73 55.85 59.56 55.85 59.56 59.45 48.73 59.45 48.73 55.85 48.73 55.85"/>
        <polygon class="cls-6" points="1.8 48.64 5.41 48.64 5.41 59.45 1.8 59.45 1.8 48.64 1.8 48.64"/>
        <polygon class="cls-6" points="9.02 52.24 12.63 52.24 12.63 59.45 9.02 59.45 9.02 52.24 9.02 52.24"/>
        <polygon class="cls-6" points="48.73 52.24 52.34 52.24 52.34 59.45 48.73 59.45 48.73 52.24 48.73 52.24"/>
        <polygon class="cls-6" points="55.95 48.64 59.56 48.64 59.56 59.45 55.95 59.45 55.95 48.64 55.95 48.64"/>
        <polygon class="cls-6" points="23.46 19.77 27.07 19.77 27.07 23.37 23.46 23.37 23.46 19.77 23.46 19.77"/>
        <polygon class="cls-6" points="34.29 19.77 37.9 19.77 37.9 23.37 34.29 23.37 34.29 19.77 34.29 19.77"/>
        <polygon class="cls-6" points="45.12 19.77 48.73 19.77 48.73 23.37 45.12 23.37 45.12 19.77 45.12 19.77"/>
        <polygon class="cls-6" points="55.95 19.77 59.56 19.77 59.56 23.37 55.95 23.37 55.95 19.77 55.95 19.77"/>
        <polygon class="cls-6" points="1.8 1.8 59.54 1.8 59.54 5.38 1.8 5.38 1.8 1.8 1.8 1.8"/>
        <polygon class="cls-6" points="1.8 9.01 59.54 9.01 59.54 12.62 1.8 12.62 1.8 9.01 1.8 9.01"/>
        <polygon class="cls-6" points="1.8 5.36 5.41 5.36 5.41 9.01 1.8 9.01 1.8 5.36 1.8 5.36"/>
        <polygon class="cls-6" points="12.63 5.36 16.24 5.36 16.24 9.01 12.63 9.01 12.63 5.36 12.63 5.36"/>
        <polygon class="cls-6" points="23.46 5.36 27.07 5.36 27.07 9.01 23.46 9.01 23.46 5.36 23.46 5.36"/>
        <polygon class="cls-6" points="34.29 5.36 37.9 5.36 37.9 9.01 34.29 9.01 34.29 5.36 34.29 5.36"/>
        <polygon class="cls-6" points="45.12 5.36 48.73 5.36 48.73 9.01 45.12 9.01 45.12 5.36 45.12 5.36"/>
        <polygon class="cls-6" points="55.95 5.36 59.56 5.36 59.56 9.01 55.95 9.01 55.95 5.36 55.95 5.36"/>
      </g>
    </g>
  </g>
</svg>