<?xml version="1.0" encoding="UTF-8"?>
<svg id="Layer_2" xmlns="http://www.w3.org/2000/svg" xmlns:xlink="http://www.w3.org/1999/xlink" viewBox="0 0 60 59.28">
  <defs>
    <style>
      .cls-1, .cls-2, .cls-3 {
        fill: none;
      }

      .cls-4 {
        clip-path: url(#clippath-1);
      }

      .cls-2, .cls-3 {
        clip-rule: evenodd;
      }

      .cls-5 {
        clip-path: url(#clippath-2);
      }

      .cls-3 {
        clip-path: url(#clippath);
      }

      .cls-6 {
        fill: #7823dc;
      }
    </style>
    <clipPath id="clippath">
      <polygon class="cls-2" points="0 59.28 60 59.28 60 0 0 0 0 59.28 0 59.28"/>
    </clipPath>
    <clipPath id="clippath-1">
      <polygon class="cls-3" points="0 0 60 0 60 59.28 0 59.28 0 0 0 0"/>
    </clipPath>
    <clipPath id="clippath-2">
      <polygon class="cls-1" points="0 59.28 60 59.28 60 0 0 0 0 59.28 0 59.28"/>
    </clipPath>
  </defs>
  <g id="Layer_1-2" data-name="Layer_1">
    <g class="cls-4">
      <g class="cls-5">
        <polygon class="cls-6" points="48.93 12.51 52.55 12.51 52.55 16.08 48.93 16.08 48.93 12.51 48.93 12.51"/>
        <polygon class="cls-6" points="48.93 19.66 52.55 19.66 52.55 23.23 48.93 23.23 48.93 19.66 48.93 19.66"/>
        <polygon class="cls-6" points="34.43 16.08 38.05 16.08 38.05 19.66 34.43 19.66 34.43 16.08 34.43 16.08"/>
        <polygon class="cls-6" points="34.43 23.23 38.05 23.23 38.05 26.81 34.43 26.81 34.43 23.23 34.43 23.23"/>
        <polygon class="cls-6" points="27.18 16.08 30.81 16.08 30.81 19.66 27.18 19.66 27.18 16.08 27.18 16.08"/>
        <polygon class="cls-6" points="27.18 23.23 30.81 23.23 30.81 26.81 27.18 26.81 27.18 23.23 27.18 23.23"/>
        <polygon class="cls-6" points="16.31 8.94 19.93 8.94 19.93 12.51 16.31 12.51 16.31 8.94 16.31 8.94"/>
        <polygon class="cls-6" points="16.31 16.08 19.93 16.08 19.93 19.66 16.31 19.66 16.31 16.08 16.31 16.08"/>
        <polygon class="cls-6" points="9.06 8.94 12.68 8.94 12.68 12.51 9.06 12.51 9.06 8.94 9.06 8.94"/>
        <polygon class="cls-6" points="9.06 16.08 12.68 16.08 12.68 19.66 9.06 19.66 9.06 16.08 9.06 16.08"/>
        <polygon class="cls-6" points="16.31 23.23 19.93 23.23 19.93 26.81 16.31 26.81 16.31 23.23 16.31 23.23"/>
        <path class="cls-6" d="M34.43,37.17c0-1.97-1.63-3.57-3.62-3.57s-3.62,1.61-3.62,3.57,1.63,3.57,3.62,3.57c1.99-.18,3.62-1.61,3.62-3.57"/>
        <path class="cls-6" d="M52.37,37.17c0-1.97-1.63-3.57-3.62-3.57s-3.62,1.61-3.62,3.57,1.63,3.57,3.62,3.57c1.99-.18,3.62-1.61,3.62-3.57"/>
        <path class="cls-6" d="M16.49,37.17c0-1.97-1.63-3.57-3.62-3.57s-3.62,1.61-3.62,3.57,1.63,3.57,3.62,3.57c1.99-.18,3.62-1.61,3.62-3.57"/>
        <polygon class="cls-6" points="53.82 51.11 56.17 58.97 56.36 58.97 59.8 57.9 54.72 41.28 48.93 41.28 51.28 58.97 54.91 58.97 53.82 51.11 53.82 51.11"/>
        <polygon class="cls-6" points="17.94 51.65 20.11 58.97 23.56 58.97 25.73 51.65 24.83 58.97 28.45 58.97 30.81 41.28 25.01 41.28 21.93 52 18.66 41.28 12.87 41.28 15.22 58.97 19.03 58.97 17.94 51.65 17.94 51.65"/>
        <polygon class="cls-6" points="35.88 51.65 38.05 58.97 41.68 58.97 43.67 51.65 42.77 58.97 46.39 58.97 48.74 41.28 42.95 41.28 39.87 52 36.6 41.28 30.99 41.28 33.34 58.97 36.97 58.97 35.88 51.65 35.88 51.65"/>
        <polygon class="cls-6" points="7.79 51.11 6.7 58.97 10.51 58.97 12.87 41.28 7.07 41.28 1.99 57.9 5.26 58.97 5.44 58.97 7.79 51.11 7.79 51.11"/>
        <polygon class="cls-6" points="41.68 5.36 41.68 8.94 27.18 8.94 27.18 1.79 1.81 1.79 1.81 34.13 5.44 34.13 5.44 5.36 23.56 5.36 23.56 33.95 27.18 33.95 27.18 12.51 41.68 12.51 41.68 33.95 45.3 33.95 45.3 8.94 56.17 8.94 56.17 33.95 59.8 33.95 59.8 5.36 41.68 5.36 41.68 5.36"/>
      </g>
    </g>
  </g>
</svg>