<?xml version="1.0" encoding="UTF-8"?>
<svg id="Layer_2" xmlns="http://www.w3.org/2000/svg" xmlns:xlink="http://www.w3.org/1999/xlink" viewBox="0 0 60 60">
  <defs>
    <style>
      .cls-1, .cls-2, .cls-3 {
        fill: none;
      }

      .cls-4 {
        clip-path: url(#clippath-1);
      }

      .cls-2, .cls-3 {
        clip-rule: evenodd;
      }

      .cls-5 {
        clip-path: url(#clippath-2);
      }

      .cls-3 {
        clip-path: url(#clippath);
      }

      .cls-6 {
        fill: #7823dc;
      }
    </style>
    <clipPath id="clippath">
      <polygon class="cls-2" points="0 60 60 60 60 0 0 0 0 60 0 60"/>
    </clipPath>
    <clipPath id="clippath-1">
      <polygon class="cls-3" points="0 0 60 0 60 60 0 60 0 0 0 0"/>
    </clipPath>
    <clipPath id="clippath-2">
      <polygon class="cls-1" points="0 60 60 60 60 0 0 0 0 60 0 60"/>
    </clipPath>
  </defs>
  <g id="Layer_1-2" data-name="Layer_1">
    <g class="cls-4">
      <g class="cls-5">
        <polygon class="cls-6" points="48.93 23.51 52.55 23.51 52.55 30.75 48.93 30.75 48.93 23.51 48.93 23.51"/>
        <polygon class="cls-6" points="48.93 34.37 52.55 34.37 52.55 41.6 48.93 41.6 48.93 34.37 48.93 34.37"/>
        <polygon class="cls-6" points="48.93 45.22 52.55 45.22 52.55 52.45 48.93 52.45 48.93 45.22 48.93 45.22"/>
        <polygon class="cls-6" points="41.68 23.51 45.3 23.51 45.3 30.75 41.68 30.75 41.68 23.51 41.68 23.51"/>
        <polygon class="cls-6" points="19.93 34.37 23.56 34.37 23.56 41.6 19.93 41.6 19.93 34.37 19.93 34.37"/>
        <polygon class="cls-6" points="12.68 34.37 16.31 34.37 16.31 41.6 12.68 41.6 12.68 34.37 12.68 34.37"/>
        <polygon class="cls-6" points="27.18 34.37 30.81 34.37 30.81 41.6 27.18 41.6 27.18 34.37 27.18 34.37"/>
        <polygon class="cls-6" points="19.93 45.22 23.56 45.22 23.56 52.45 19.93 52.45 19.93 45.22 19.93 45.22"/>
        <polygon class="cls-6" points="12.68 45.22 16.31 45.22 16.31 52.45 12.68 52.45 12.68 45.22 12.68 45.22"/>
        <polygon class="cls-6" points="27.18 45.22 30.81 45.22 30.81 52.45 27.18 52.45 27.18 45.22 27.18 45.22"/>
        <polygon class="cls-6" points="41.68 34.37 45.3 34.37 45.3 41.6 41.68 41.6 41.68 34.37 41.68 34.37"/>
        <polygon class="cls-6" points="41.68 45.22 45.3 45.22 45.3 52.45 41.68 52.45 41.68 45.22 41.68 45.22"/>
        <path class="cls-6" d="M56.17,16.28v-7.23h-7.25V1.81h-3.62v7.24h-7.25v7.23h-3.62v10.85H12.68l-3.62,3.62h25.37v25.32H9.06v-25.32l-3.62,3.62v21.71H1.81v3.62h57.99V16.28h-3.62ZM41.68,12.66h10.87v3.62h-10.87v-3.62h0ZM56.17,56.07h-18.12V19.9h18.12v36.18h0Z"/>
      </g>
    </g>
  </g>
</svg>