<?xml version="1.0" encoding="UTF-8"?>
<svg id="Layer_2" xmlns="http://www.w3.org/2000/svg" xmlns:xlink="http://www.w3.org/1999/xlink" viewBox="0 0 60 60">
  <defs>
    <style>
      .cls-1, .cls-2, .cls-3 {
        fill: none;
      }

      .cls-4 {
        clip-path: url(#clippath-1);
      }

      .cls-2, .cls-3 {
        clip-rule: evenodd;
      }

      .cls-5 {
        clip-path: url(#clippath-2);
      }

      .cls-3 {
        clip-path: url(#clippath);
      }

      .cls-6 {
        fill-rule: evenodd;
      }

      .cls-6, .cls-7 {
        fill: #7823dc;
      }
    </style>
    <clipPath id="clippath">
      <polygon class="cls-2" points="0 60 60 60 60 0 0 0 0 60 0 60"/>
    </clipPath>
    <clipPath id="clippath-1">
      <polygon class="cls-3" points="0 0 60 0 60 60 0 60 0 0 0 0"/>
    </clipPath>
    <clipPath id="clippath-2">
      <polygon class="cls-1" points="0 60 60 60 60 0 0 0 0 60 0 60"/>
    </clipPath>
  </defs>
  <g id="Layer_1-2" data-name="Layer_1">
    <g class="cls-4">
      <g class="cls-5">
        <polygon class="cls-6" points="25.37 19.9 28.99 19.9 28.99 23.51 25.37 23.51 25.37 19.9 25.37 19.9"/>
        <polygon class="cls-6" points="25.37 12.66 28.99 12.66 28.99 16.28 25.37 16.28 25.37 12.66 25.37 12.66"/>
        <polygon class="cls-6" points="32.62 19.9 36.24 19.9 36.24 23.51 32.62 23.51 32.62 19.9 32.62 19.9"/>
        <polygon class="cls-6" points="25.37 27.13 28.99 27.13 28.99 30.75 25.37 30.75 25.37 27.13 25.37 27.13"/>
        <polygon class="cls-6" points="32.62 27.13 36.24 27.13 36.24 30.75 32.62 30.75 32.62 27.13 32.62 27.13"/>
        <polygon class="cls-6" points="25.37 34.37 28.99 34.37 28.99 37.98 25.37 37.98 25.37 34.37 25.37 34.37"/>
        <polygon class="cls-6" points="14.5 23.51 18.12 23.51 18.12 27.13 14.5 27.13 14.5 23.51 14.5 23.51"/>
        <polygon class="cls-6" points="14.5 30.75 18.12 30.75 18.12 34.37 14.5 34.37 14.5 30.75 14.5 30.75"/>
        <polygon class="cls-6" points="32.62 34.37 36.24 34.37 36.24 37.98 32.62 37.98 32.62 34.37 32.62 34.37"/>
        <polygon class="cls-6" points="25.37 41.6 28.99 41.6 28.99 45.22 25.37 45.22 25.37 41.6 25.37 41.6"/>
        <polygon class="cls-6" points="32.62 41.6 36.24 41.6 36.24 45.22 32.62 45.22 32.62 41.6 32.62 41.6"/>
        <polygon class="cls-6" points="12.68 45.22 16.31 45.22 16.31 48.84 12.68 48.84 12.68 45.22 12.68 45.22"/>
        <polygon class="cls-6" points="12.68 52.45 16.31 52.45 16.31 56.07 12.68 56.07 12.68 52.45 12.68 52.45"/>
        <polygon class="cls-6" points="44.21 34.37 47.84 34.37 47.84 37.98 44.21 37.98 44.21 34.37 44.21 34.37"/>
        <polygon class="cls-6" points="44.21 41.6 47.84 41.6 47.84 45.22 44.21 45.22 44.21 41.6 44.21 41.6"/>
        <polygon class="cls-6" points="25.37 48.84 28.99 48.84 28.99 52.45 25.37 52.45 25.37 48.84 25.37 48.84"/>
        <polygon class="cls-6" points="32.62 48.84 36.24 48.84 36.24 52.45 32.62 52.45 32.62 48.84 32.62 48.84"/>
        <polygon class="cls-6" points="44.21 48.84 47.84 48.84 47.84 52.45 44.21 52.45 44.21 48.84 44.21 48.84"/>
        <path class="cls-7" d="M54.36,56.07v-21.71l-7.25-7.23h-5.44V9.59L19.93,3.07v13.2h-10.87v21.71h-3.62v18.09H1.81v3.62h57.99v-3.62h-5.44ZM12.68,19.9h7.25v18.09h-7.25v-18.09h0ZM9.06,56.07v-14.47h10.87v14.47h-10.87ZM23.56,56.07V7.78l14.5,4.34v43.95h-14.5ZM41.68,30.75h9.06v25.32h-9.06v-25.32h0Z"/>
      </g>
    </g>
  </g>
</svg>