<?xml version="1.0" encoding="UTF-8"?>
<svg id="Layer_2" xmlns="http://www.w3.org/2000/svg" xmlns:xlink="http://www.w3.org/1999/xlink" viewBox="0 0 59.04 59.4">
  <defs>
    <style>
      .cls-1, .cls-2, .cls-3 {
        fill: none;
      }

      .cls-4 {
        clip-path: url(#clippath-1);
      }

      .cls-2, .cls-3 {
        clip-rule: evenodd;
      }

      .cls-5 {
        clip-path: url(#clippath-2);
      }

      .cls-3 {
        clip-path: url(#clippath);
      }

      .cls-6 {
        fill: #7823dc;
      }
    </style>
    <clipPath id="clippath">
      <polygon class="cls-2" points="0 59.4 59.04 59.4 59.04 0 0 0 0 59.4 0 59.4"/>
    </clipPath>
    <clipPath id="clippath-1">
      <polygon class="cls-3" points="0 0 59.04 0 59.04 59.4 0 59.4 0 0 0 0"/>
    </clipPath>
    <clipPath id="clippath-2">
      <polygon class="cls-1" points="0 59.4 59.04 59.4 59.04 0 0 0 0 59.4 0 59.4"/>
    </clipPath>
  </defs>
  <g id="Layer_1-2" data-name="Layer_1">
    <g class="cls-4">
      <g class="cls-5">
        <polygon class="cls-6" points="30.31 15.58 26.75 15.58 26.75 40.47 30.31 40.47 30.31 15.58 30.31 15.58 30.31 15.58"/>
        <polygon class="cls-6" points="46.72 25.07 1.78 25.07 1.78 28.65 52.07 28.65 52.07 26.14 46.72 25.07 46.72 25.07 46.72 25.07"/>
        <polygon class="cls-6" points="55.28 30.62 51.71 30.62 51.71 34.2 55.28 34.2 55.28 30.62 55.28 30.62 55.28 30.62"/>
        <path class="cls-6" d="M44.76,37.6c1.07,0,1.78.72,1.78,1.79s-.71,1.79-1.78,1.79-1.78-.72-1.78-1.79.89-1.79,1.78-1.79M44.76,34.02c-3.03,0-5.35,2.33-5.35,5.37s2.32,5.37,5.35,5.37,5.35-2.33,5.35-5.37-2.32-5.37-5.35-5.37h0Z"/>
        <path class="cls-6" d="M12.84,37.6c1.07,0,1.78.72,1.78,1.79s-.71,1.79-1.78,1.79-1.78-.72-1.78-1.79.71-1.79,1.78-1.79M12.84,34.02c-3.03,0-5.35,2.33-5.35,5.37s2.32,5.37,5.35,5.37,5.35-2.33,5.35-5.37h0c-.18-3.04-2.5-5.37-5.35-5.37h0Z"/>
        <polygon class="cls-6" points="16.05 37.78 41.72 37.78 41.72 41.36 16.05 41.36 16.05 37.78 16.05 37.78"/>
        <polygon class="cls-6" points="47.43 37.78 57.42 37.78 57.42 41.36 47.43 41.36 47.43 37.78 47.43 37.78"/>
        <polygon class="cls-6" points="5.35 37.78 5.35 26.32 1.78 26.32 1.78 34.2 8.92 41.36 10.7 41.36 10.7 37.78 5.35 37.78 5.35 37.78"/>
        <polygon class="cls-6" points="47.61 23.46 40.65 12.53 13.91 12.53 5.88 25.61 8.92 27.58 15.69 16.12 38.87 16.12 45.65 26.68 55.28 29.55 55.28 41.36 58.84 41.36 58.84 27.04 47.61 23.46 47.61 23.46"/>
      </g>
    </g>
  </g>
</svg>