<?xml version="1.0" encoding="UTF-8"?>
<svg id="Layer_2" xmlns="http://www.w3.org/2000/svg" xmlns:xlink="http://www.w3.org/1999/xlink" viewBox="0 0 60.48 60.48">
  <defs>
    <style>
      .cls-1, .cls-2, .cls-3 {
        fill: none;
      }

      .cls-4 {
        clip-path: url(#clippath-1);
      }

      .cls-2, .cls-3 {
        clip-rule: evenodd;
      }

      .cls-5 {
        clip-path: url(#clippath-2);
      }

      .cls-3 {
        clip-path: url(#clippath);
      }

      .cls-6 {
        fill: #7823dc;
      }
    </style>
    <clipPath id="clippath">
      <polygon class="cls-2" points="0 60.48 60.48 60.48 60.48 0 0 0 0 60.48 0 60.48"/>
    </clipPath>
    <clipPath id="clippath-1">
      <polygon class="cls-3" points="0 0 60.48 0 60.48 60.48 0 60.48 0 0 0 0"/>
    </clipPath>
    <clipPath id="clippath-2">
      <polygon class="cls-1" points="0 60.48 60.48 60.48 60.48 0 0 0 0 60.48 0 60.48"/>
    </clipPath>
  </defs>
  <g id="Layer_1-2" data-name="Layer_1">
    <g class="cls-4">
      <g class="cls-5">
        <path class="cls-6" d="M36.17,10.94c4.75,0,9.13,2.73,10.78,6.75l4.2,9.66H11.14l4.2-9.66c1.64-4.01,6.03-6.75,10.78-6.75h10.05M36.17,7.29h-10.05c-6.21,0-11.87,3.46-14.25,8.93l-6.39,14.77h51.14l-6.39-14.77c-2.19-5.47-7.85-8.93-14.06-8.93"/>
        <path class="cls-6" d="M51.69,30.99c1.83,0,3.29,1.46,3.29,3.28v.73l1.83,11.49c-.18,1.64-1.46,2.92-3.29,2.92H8.77c-1.64,0-3.11-1.28-3.29-2.92l1.83-11.49v-.73c0-1.82,1.46-3.28,3.29-3.28h41.1M51.69,27.35H10.59c-3.84,0-6.94,3.1-6.94,6.93l-1.83,11.85c0,3.65,3.11,6.75,6.94,6.75h44.75c3.84,0,6.94-3.1,6.94-6.93l-1.83-11.85c-.18-3.65-3.29-6.75-6.94-6.75"/>
        <path class="cls-6" d="M13.15,60.17h-4.93c-1.46,0-2.74-1.28-2.74-2.73v-4.74c0-1.64,1.28-2.73,2.74-2.73h4.75c1.64,0,2.74,1.28,2.74,2.73v4.74c.18,1.46-1.1,2.73-2.56,2.73"/>
        <path class="cls-6" d="M53.7,60.17h-5.11c-1.64,0-2.92-1.28-2.92-2.92v-4.74c0-1.64,1.28-2.92,2.92-2.92h5.11c1.64,0,2.92,1.28,2.92,2.92v4.74c0,1.64-1.28,2.92-2.92,2.92"/>
        <path class="cls-6" d="M37.08,38.29l.55,3.65h-13.33l.55-3.65h12.24ZM40.18,34.64h-18.27l-1.83,10.94h21.92l-1.83-10.94h0Z"/>
        <path class="cls-6" d="M30.14,27.9h-3.65c0-2.01-1.64-3.65-3.65-3.65s-3.65,1.64-3.65,3.65h-3.65c0-4.01,3.29-7.29,7.31-7.29s7.31,3.28,7.31,7.29h0Z"/>
        <path class="cls-6" d="M12.79,44.67c-3.11,0-5.48-2.37-5.48-5.47s2.37-5.47,5.48-5.47,5.48,2.37,5.48,5.47-2.37,5.47-5.48,5.47h0ZM12.79,37.38c-1.1,0-1.83.73-1.83,1.82s.73,1.82,1.83,1.82,1.83-.73,1.83-1.82-.73-1.82-1.83-1.82h0Z"/>
        <path class="cls-6" d="M49.32,44.67c-3.11,0-5.48-2.37-5.48-5.47s2.37-5.47,5.48-5.47,5.48,2.37,5.48,5.47-2.37,5.47-5.48,5.47h0ZM49.32,37.38c-1.1,0-1.83.73-1.83,1.82s.73,1.82,1.83,1.82,1.83-.73,1.83-1.82-.73-1.82-1.83-1.82h0Z"/>
        <polygon class="cls-6" points="14.61 12.76 47.49 12.76 47.49 16.41 14.61 16.41 14.61 12.76 14.61 12.76"/>
      </g>
    </g>
  </g>
</svg>