<?xml version="1.0" encoding="UTF-8"?>
<svg id="Layer_2" xmlns="http://www.w3.org/2000/svg" xmlns:xlink="http://www.w3.org/1999/xlink" viewBox="0 0 60.48 60.48">
  <defs>
    <style>
      .cls-1, .cls-2, .cls-3 {
        fill: none;
      }

      .cls-4 {
        clip-path: url(#clippath-1);
      }

      .cls-2, .cls-3 {
        clip-rule: evenodd;
      }

      .cls-5 {
        clip-path: url(#clippath-2);
      }

      .cls-3 {
        clip-path: url(#clippath);
      }

      .cls-6 {
        fill: #7823dc;
      }
    </style>
    <clipPath id="clippath">
      <polygon class="cls-2" points="0 60.48 60.48 60.48 60.48 0 0 0 0 60.48 0 60.48"/>
    </clipPath>
    <clipPath id="clippath-1">
      <polygon class="cls-3" points="0 0 60.48 0 60.48 60.48 0 60.48 0 0 0 0"/>
    </clipPath>
    <clipPath id="clippath-2">
      <polygon class="cls-1" points="0 60.48 60.48 60.48 60.48 0 0 0 0 60.48 0 60.48"/>
    </clipPath>
  </defs>
  <g id="Layer_1-2" data-name="Layer_1">
    <g class="cls-4">
      <g class="cls-5">
        <path class="cls-6" d="M60.28,16.47V1.88H1.83v14.59h7.31v7.19h0v32.92H1.83v3.65h7.3v.18h18.27v-.18h32.88v-3.65h-14.24c2.26.04,4.3-1.35,5.1-3.46h9.14v-3.65h-9.11c-.7-2.25-2.77-3.79-5.14-3.83-2.4-.04-4.54,1.53-5.22,3.83h-2.45l2.25,2.25c.25,2.79,2.61,4.91,5.41,4.86h-18.62v-3.65h5.48v-9.12h1.83v2.01l3.65,3.65v-9.3h21.92v-3.65h-16.75l5.42-9.12h11.32v-3.65h-13.15l-7.88,12.76h-4.54v3.65h-5.48v9.12h-1.83v-25.63h-14.61v-7.19h47.49ZM44.2,51.11c0-1.01.82-1.82,1.83-1.82s1.83.82,1.83,1.82-.82,1.82-1.83,1.82c-.95.06-1.77-.67-1.83-1.62,0-.07,0-.14,0-.21h0ZM12.98,38.3h10.56v18.25h-10.56v-18.25h0ZM23.55,27.5v7.15h-10.56v-7.15h10.56ZM5.48,5.53h51.14v7.29H5.48v-7.29h0Z"/>
      </g>
    </g>
  </g>
</svg>