<?xml version="1.0" encoding="UTF-8"?>
<svg id="Layer_2" xmlns="http://www.w3.org/2000/svg" xmlns:xlink="http://www.w3.org/1999/xlink" viewBox="0 0 60.48 60.48">
  <defs>
    <style>
      .cls-1, .cls-2, .cls-3 {
        fill: none;
      }

      .cls-4 {
        clip-path: url(#clippath-1);
      }

      .cls-2, .cls-3 {
        clip-rule: evenodd;
      }

      .cls-5 {
        clip-path: url(#clippath-2);
      }

      .cls-3 {
        clip-path: url(#clippath);
      }

      .cls-6 {
        fill: #7823dc;
      }
    </style>
    <clipPath id="clippath">
      <polygon class="cls-2" points="0 60.48 60.48 60.48 60.48 0 0 0 0 60.48 0 60.48"/>
    </clipPath>
    <clipPath id="clippath-1">
      <polygon class="cls-3" points="0 0 60.48 0 60.48 60.48 0 60.48 0 0 0 0"/>
    </clipPath>
    <clipPath id="clippath-2">
      <polygon class="cls-1" points="0 60.48 60.48 60.48 60.48 0 0 0 0 60.48 0 60.48"/>
    </clipPath>
  </defs>
  <g id="Layer_1-2" data-name="Layer_1">
    <g class="cls-4">
      <g class="cls-5">
        <path class="cls-6" d="M45.66,60.11H1.83v-10.94h43.84v10.94h0ZM5.48,56.46h36.53v-3.65H5.48v3.65h0Z"/>
        <path class="cls-6" d="M42.01,52.81H5.48V1.76h36.53v51.05h0ZM9.13,49.17h29.23V5.41H9.13v43.76h0Z"/>
        <path class="cls-6" d="M34.7,20H12.79v-10.94h21.92v10.94h0ZM16.44,16.35h14.61v-3.65h-14.61v3.65h0Z"/>
        <path class="cls-6" d="M60.28,27.29h-10.96v-14.59h10.96v14.59h0ZM52.97,23.64h3.65v-7.29h-3.65v7.29h0Z"/>
        <path class="cls-6" d="M33.72,35.97c-1.04-6.2-8.44-12.84-8.77-13.11l-1.15-1.02-.05.04-.05-.04-1.15,1.02c-.33.27-7.73,6.91-8.77,13.11-.59,2.81.12,5.73,1.94,7.95,2.05,2.26,4.99,3.5,8.04,3.41,3.05.1,5.99-1.15,8.04-3.41,1.81-2.22,2.53-5.14,1.94-7.95h0ZM29.01,41.55c-1.35,1.45-3.28,2.23-5.26,2.13-1.98.09-3.91-.69-5.26-2.13-1.1-1.41-1.5-3.24-1.11-4.98.57-3.37,4.11-7.55,6.37-9.83,2.26,2.28,5.81,6.45,6.37,9.83.39,1.74-.02,3.57-1.11,4.98h0Z"/>
        <polygon class="cls-6" points="40.18 38.23 54.8 38.23 54.8 41.88 40.18 41.88 40.18 38.23 40.18 38.23"/>
        <polygon class="cls-6" points="52.97 25.47 56.62 25.47 56.62 41.88 52.97 41.88 52.97 25.47 52.97 25.47"/>
        <polygon class="cls-6" points="51.9 1.76 46.73 1.76 52.97 7.99 52.97 14.53 56.62 14.53 56.62 6.48 51.9 1.76 51.9 1.76 51.9 1.76"/>
      </g>
    </g>
  </g>
</svg>