<?xml version="1.0" encoding="UTF-8"?>
<svg id="Layer_2" xmlns="http://www.w3.org/2000/svg" xmlns:xlink="http://www.w3.org/1999/xlink" viewBox="0 0 60 60">
  <defs>
    <style>
      .cls-1, .cls-2, .cls-3 {
        fill: none;
      }

      .cls-4 {
        clip-path: url(#clippath-1);
      }

      .cls-5 {
        clip-path: url(#clippath-8);
      }

      .cls-2, .cls-3 {
        clip-rule: evenodd;
      }

      .cls-6 {
        clip-path: url(#clippath-2);
      }

      .cls-3 {
        clip-path: url(#clippath);
      }

      .cls-7 {
        fill: #7823dc;
      }
    </style>
    <clipPath id="clippath">
      <polygon class="cls-2" points="0 60 60 60 60 0 0 0 0 60 0 60"/>
    </clipPath>
    <clipPath id="clippath-1">
      <polygon class="cls-3" points="0 0 60 0 60 60 0 60 0 0 0 0"/>
    </clipPath>
    <clipPath id="clippath-2">
      <polygon class="cls-1" points="0 60 60 60 60 0 0 0 0 60 0 60"/>
    </clipPath>
    <clipPath id="clippath-8">
      <polygon class="cls-2" points="1.81 59.69 59.8 59.69 59.8 1.81 1.81 1.81 1.81 59.69 1.81 59.69"/>
    </clipPath>
  </defs>
  <g id="Layer_1-2" data-name="Layer_1">
    <g class="cls-4">
      <g class="cls-6">
        <path class="cls-7" d="M48.92,51.56c-1,0-1.82-.81-1.82-1.82,0-.21.03-.41.1-.6.33-.95,1.37-1.44,2.32-1.11.95.33,1.44,1.37,1.11,2.31-.26.73-.94,1.21-1.72,1.21h0Z"/>
        <path class="cls-7" d="M48.93,48.84c.5,0,.9.41.9.91,0,.5-.41.9-.91.9-.5,0-.9-.41-.9-.91,0-.1.02-.2.05-.3.13-.36.47-.6.86-.6M48.93,47.03c-1.51,0-2.73,1.22-2.73,2.72s1.22,2.72,2.73,2.72,2.73-1.22,2.73-2.72h0c0-1.5-1.22-2.72-2.73-2.72h0Z"/>
        <polygon class="cls-7" points="48.92 45.24 51.12 48.14 46.73 48.14 48.92 45.24 48.92 45.24 48.92 45.24"/>
        <path class="cls-7" d="M12.68,12.69v43.42h-7.24V12.69h7.24M16.31,9.07H1.81v50.66h14.5V9.07h0Z"/>
        <path class="cls-7" d="M30.8,12.69v43.42h-7.24V12.69h7.24M34.43,9.07h-14.5v50.66h14.5V9.07h0Z"/>
        <polygon class="cls-7" points="10.87 1.84 7.25 1.84 7.25 11.61 10.87 11.61 10.87 1.84 10.87 1.84 10.87 1.84 10.87 1.84"/>
        <polygon class="cls-7" points="28.99 1.84 25.37 1.84 25.37 11.61 28.99 11.61 28.99 1.84 28.99 1.84 28.99 1.84 28.99 1.84"/>
        <polygon class="cls-7" points="27.18 1.84 8.15 1.84 8.15 5.44 27.18 5.44 27.18 1.84 27.18 1.84 27.18 1.84 27.18 1.84"/>
        <polygon class="cls-7" points="27.18 23.54 9.06 23.54 9.06 27.14 27.18 27.14 27.18 23.54 27.18 23.54 27.18 23.54 27.18 23.54"/>
        <g class="cls-5">
          <path class="cls-7" d="M55.11,41.6c1.42,4.73,1.43,9.78,0,14.52h-12.39c-1.42-4.74-1.41-9.78,0-14.52h12.37M57.59,37.99h-17.34c-1.49,3.43-2.24,7.14-2.2,10.88-.04,3.73.71,7.43,2.19,10.85h17.37c1.48-3.42,2.23-7.12,2.19-10.85.04-3.74-.71-7.45-2.2-10.88h0Z"/>
          <polygon class="cls-7" points="47.12 39.31 47.12 27.24 34.43 27.24 34.43 23.63 50.73 23.63 50.73 39.31 47.12 39.31 47.12 39.31 47.12 39.31"/>
        </g>
      </g>
    </g>
  </g>
</svg>