<?xml version="1.0" encoding="UTF-8"?>
<svg id="Layer_2" xmlns="http://www.w3.org/2000/svg" xmlns:xlink="http://www.w3.org/1999/xlink" viewBox="0 0 59.04 60">
  <defs>
    <style>
      .cls-1, .cls-2, .cls-3 {
        fill: none;
      }

      .cls-4 {
        clip-path: url(#clippath-1);
      }

      .cls-2, .cls-3 {
        clip-rule: evenodd;
      }

      .cls-5 {
        clip-path: url(#clippath-2);
      }

      .cls-3 {
        clip-path: url(#clippath);
      }

      .cls-6 {
        fill: #7823dc;
      }
    </style>
    <clipPath id="clippath">
      <polygon class="cls-2" points="0 60 59.04 60 59.04 0 0 0 0 60 0 60"/>
    </clipPath>
    <clipPath id="clippath-1">
      <polygon class="cls-3" points="0 0 59.04 0 59.04 60 0 60 0 0 0 0"/>
    </clipPath>
    <clipPath id="clippath-2">
      <polygon class="cls-1" points="0 60 59.04 60 59.04 0 0 0 0 60 0 60"/>
    </clipPath>
  </defs>
  <g id="Layer_1-2" data-name="Layer_1">
    <g class="cls-4">
      <g class="cls-5">
        <path class="cls-6" d="M30.31,36.46L11.36,14.63l10.7-9.59,18.95,21.83-10.7,9.59h0ZM16.39,14.94l14.26,16.41,5.35-4.79-14.26-16.41-5.35,4.79h0Z"/>
        <path class="cls-6" d="M15.07,16.15l-6.15-7.11,7.95-7.24,6.21,7.24-8.01,7.11h0ZM13.89,9.35l1.48,1.68,2.67-2.39-1.48-1.7-2.67,2.41h0Z"/>
        <polygon class="cls-6" points="33.88 41.58 51.71 41.58 51.71 45.2 33.88 45.2 33.88 41.58 33.88 41.58"/>
        <polygon class="cls-6" points="12.48 56.05 48.14 56.05 48.14 59.67 12.48 59.67 12.48 56.05 12.48 56.05"/>
        <path class="cls-6" d="M30.31,57.88c-11.82,0-21.4-9.71-21.41-21.7,0-6.75,3.09-13.12,8.37-17.23l2.18,2.88c-4.41,3.41-6.99,8.72-6.97,14.34-.15,9.99,7.7,18.21,17.55,18.37,7.57.12,14.39-4.62,17.01-11.82l3.33,1.3c-3.25,8.35-11.21,13.85-20.06,13.86h0Z"/>
      </g>
    </g>
  </g>
</svg>