<?xml version="1.0" encoding="UTF-8"?>
<svg id="Layer_2" xmlns="http://www.w3.org/2000/svg" xmlns:xlink="http://www.w3.org/1999/xlink" viewBox="0 0 60 60">
  <defs>
    <style>
      .cls-1, .cls-2, .cls-3 {
        fill: none;
      }

      .cls-4 {
        clip-path: url(#clippath-1);
      }

      .cls-2, .cls-3 {
        clip-rule: evenodd;
      }

      .cls-5 {
        clip-path: url(#clippath-2);
      }

      .cls-3 {
        clip-path: url(#clippath);
      }

      .cls-6 {
        fill: #7823dc;
      }
    </style>
    <clipPath id="clippath">
      <polygon class="cls-2" points="0 60 60 60 60 0 0 0 0 60 0 60"/>
    </clipPath>
    <clipPath id="clippath-1">
      <polygon class="cls-3" points="0 0 60 0 60 60 0 60 0 0 0 0"/>
    </clipPath>
    <clipPath id="clippath-2">
      <polygon class="cls-1" points="0 60 60 60 60 0 0 0 0 60 0 60"/>
    </clipPath>
  </defs>
  <g id="Layer_1-2" data-name="Layer_1">
    <g class="cls-4">
      <g class="cls-5">
        <path class="cls-6" d="M30.81,5.43c7.48,0,12.68,13.31,12.68,25.32s-5.2,25.32-12.68,25.32-12.68-13.38-12.68-25.32S23.32,5.43,30.81,5.43M30.81,1.81c-9.06,0-16.31,13-16.31,28.94s7.25,28.94,16.31,28.94,16.31-12.93,16.31-28.94S39.87,1.81,30.81,1.81h0Z"/>
        <path class="cls-6" d="M18.59,14.2h0c6.56.27,12.94,2.19,18.56,5.59,5.69,3.1,10.51,7.59,14.01,13.04,2.46,4.14,3.03,7.99,1.56,10.55-1.47,2.55-4.98,3.92-9.69,3.92-6.56-.27-12.94-2.19-18.56-5.59-10.37-5.97-19.3-17.13-15.57-23.62,1.45-2.5,4.98-3.92,9.69-3.92M18.59,10.55c-5.91.04-10.62,1.94-12.83,5.73-4.49,7.83,3.06,20.6,16.89,28.56,6.16,3.73,13.17,5.82,20.37,6.08,5.89,0,10.62-1.81,12.83-5.73,4.49-7.8-3.06-20.57-16.89-28.52-6.16-3.73-13.17-5.82-20.37-6.08v-.04Z"/>
        <path class="cls-6" d="M43.02,14.2c4.71,0,8.24,1.43,9.69,3.92,3.73,6.46-5.2,17.62-15.57,23.51-5.61,3.42-11.99,5.37-18.56,5.66-4.71,0-8.24-1.43-9.69-3.92-1.45-2.5-.91-6.4,1.56-10.55,3.5-5.45,8.32-9.94,14.01-13.04,5.61-3.4,12-5.32,18.56-5.59M43.02,10.58c-7.2.26-14.21,2.35-20.37,6.08C8.82,24.62,1.27,37.39,5.76,45.22c2.21,3.8,6.92,5.7,12.83,5.7,7.2-.26,14.21-2.35,20.37-6.08,13.83-7.96,21.38-20.73,16.89-28.56-2.21-3.8-6.92-5.7-12.83-5.7h0Z"/>
      </g>
    </g>
  </g>
</svg>