<?xml version="1.0" encoding="UTF-8"?>
<svg id="Layer_2" xmlns="http://www.w3.org/2000/svg" xmlns:xlink="http://www.w3.org/1999/xlink" viewBox="0 0 60 60">
  <defs>
    <style>
      .cls-1, .cls-2, .cls-3 {
        fill: none;
      }

      .cls-4 {
        clip-path: url(#clippath-1);
      }

      .cls-2, .cls-3 {
        clip-rule: evenodd;
      }

      .cls-5 {
        clip-path: url(#clippath-2);
      }

      .cls-3 {
        clip-path: url(#clippath);
      }

      .cls-6 {
        fill: #7823dc;
      }
    </style>
    <clipPath id="clippath">
      <polygon class="cls-2" points="0 60 60 60 60 0 0 0 0 60 0 60"/>
    </clipPath>
    <clipPath id="clippath-1">
      <polygon class="cls-3" points="0 0 60 0 60 60 0 60 0 0 0 0"/>
    </clipPath>
    <clipPath id="clippath-2">
      <polygon class="cls-1" points="0 60 60 60 60 0 0 0 0 60 0 60"/>
    </clipPath>
  </defs>
  <g id="Layer_1-2" data-name="Layer_1">
    <g class="cls-4">
      <g class="cls-5">
        <path class="cls-6" d="M6.83,19.62c-.87.59-1.55,1.42-1.96,2.39.41-.97,1.09-1.8,1.96-2.39h0Z"/>
        <path class="cls-6" d="M4.87,26.24c.41.97,1.09,1.8,1.96,2.39-.87-.59-1.55-1.42-1.96-2.39h0Z"/>
        <path class="cls-6" d="M9.88,18.7c-1.08,0-2.14.32-3.04.92-.87.59-1.55,1.42-1.96,2.39-.57,1.35-.57,2.88,0,4.23.41.97,1.09,1.8,1.96,2.39.9.6,1.96.92,3.04.92,3,0,5.44-2.43,5.44-5.43s-2.43-5.43-5.44-5.43h0ZM9.88,25.94c-1,0-1.81-.81-1.81-1.81s.81-1.81,1.81-1.81,1.81.81,1.81,1.81-.81,1.81-1.81,1.81h0Z"/>
        <path class="cls-6" d="M35.35,58.1c-.4-.11-.79-.27-1.16-.47.37.2.76.36,1.16.47h0Z"/>
        <path class="cls-6" d="M36.89,47.44c.4,0,.79.06,1.18.16-.38-.1-.78-.15-1.18-.16h0Z"/>
        <path class="cls-6" d="M38.14,47.61c.4.11.79.27,1.16.47-.37-.2-.76-.36-1.16-.47h0Z"/>
        <path class="cls-6" d="M35.61,47.57c.3-.05.6-.09.91-.11-.3.02-.61.05-.91.11h0Z"/>
        <path class="cls-6" d="M32.85,56.61c-.32-.31-.59-.67-.82-1.05.23.38.5.74.82,1.05h0Z"/>
        <path class="cls-6" d="M39.47,57.55c-.38.21-.79.38-1.21.51.42-.12.83-.29,1.21-.51h0Z"/>
        <path class="cls-6" d="M34.03,48.15c.38-.2.78-.37,1.2-.49-.41.12-.82.28-1.2.49h0Z"/>
        <path class="cls-6" d="M33.89,57.45c-.27-.17-.53-.36-.76-.58.23.22.49.41.76.58h0Z"/>
        <path class="cls-6" d="M37.89,58.13c-.3.07-.6.11-.91.13.31-.02.61-.06.91-.13h0Z"/>
        <path class="cls-6" d="M36.6,58.26c-.4,0-.79-.05-1.18-.14.39.09.78.14,1.18.14h0Z"/>
        <path class="cls-6" d="M40.64,49.11c.31.31.58.66.82,1.03-.23-.37-.5-.72-.82-1.03h0Z"/>
        <path class="cls-6" d="M39.61,48.28c.27.17.52.35.76.56-.23-.21-.49-.4-.76-.56h0Z"/>
        <path class="cls-6" d="M39.47,57.55c.63-.36,1.18-.85,1.61-1.43-.44.58-.99,1.06-1.61,1.43h0Z"/>
        <path class="cls-6" d="M41.08,56.07c.64-.83,1.02-1.84,1.09-2.89-.06,1.05-.44,2.06-1.09,2.89h0Z"/>
        <path class="cls-6" d="M41.46,50.14c-.23-.37-.5-.72-.82-1.03l-.27-.27c-.24-.21-.49-.39-.76-.56l-.31-.2c-.37-.2-.76-.36-1.16-.47h0c-.38-.1-.78-.15-1.18-.16h-.38c-.3.02-.61.05-.91.11l-.38.09c-.41.12-.82.28-1.2.49-2.6,1.5-3.5,4.81-2,7.41,0,0,0,0,0,0,.23.38.5.74.82,1.05l.27.25c.23.22.49.41.76.58l.31.18c.37.2.76.36,1.16.47h0c.39.09.78.14,1.18.14h.38c.31-.02.61-.06.91-.13h.36c.42-.12.83-.29,1.21-.51.63-.36,1.18-.85,1.61-1.43.64-.83,1.02-1.84,1.09-2.89.09-1.09-.16-2.18-.71-3.13h0ZM37.66,54.43c-.87.5-1.97.21-2.48-.66,0,0,0,0,0-.01-.49-.86-.19-1.96.67-2.46.27-.16.59-.25.91-.25,1,0,1.82.8,1.82,1.8,0,.66-.35,1.26-.92,1.59h0Z"/>
        <path class="cls-6" d="M48,20.66c-.3,0-.61-.05-.91-.11.3.06.6.1.91.11h0Z"/>
        <path class="cls-6" d="M46.72,20.46c-.41-.12-.82-.28-1.2-.49.38.2.78.37,1.2.49h0Z"/>
        <path class="cls-6" d="M44.61,11.25c.21-.21.44-.4.69-.58-.24.18-.47.37-.69.58h0Z"/>
        <path class="cls-6" d="M45.68,10.49c.37-.2.76-.36,1.16-.47-.4.11-.79.27-1.16.47h0Z"/>
        <path class="cls-6" d="M43.49,12.55c.23-.38.5-.74.82-1.05-.32.31-.59.67-.82,1.05h0Z"/>
        <path class="cls-6" d="M52.95,17.98c-.24.38-.51.73-.82,1.05.31-.32.58-.67.82-1.05h0Z"/>
        <path class="cls-6" d="M51.86,19.28c-.23.21-.49.4-.76.56.27-.16.53-.35.76-.56h0Z"/>
        <path class="cls-6" d="M49.56,20.51c-.38.1-.78.15-1.18.16.4,0,.79-.06,1.18-.16h0Z"/>
        <path class="cls-6" d="M50.74,20.04c-.37.2-.76.36-1.16.47.4-.11.79-.27,1.16-.47h0Z"/>
        <path class="cls-6" d="M49.76,10.07c.42.11.82.28,1.2.49-.38-.21-.78-.38-1.2-.49h0Z"/>
        <path class="cls-6" d="M46.91,10c.39-.09.78-.14,1.18-.14-.4,0-.79.05-1.18.14h0Z"/>
        <path class="cls-6" d="M48.47,9.86c.31.02.61.06.91.13-.3-.07-.6-.11-.91-.13h0Z"/>
        <path class="cls-6" d="M42.84,14.6c-.09.69-.04,1.39.14,2.06-.18-.67-.23-1.37-.14-2.06h0Z"/>
        <path class="cls-6" d="M50.96,10.56c-.38-.21-.78-.38-1.2-.49l-.38-.09c-.3-.07-.6-.11-.91-.13h-.38c-.4,0-.79.05-1.18.14h0c-.4.11-.79.27-1.16.47l-.45.2c-.27.17-.52.37-.76.58l-.27.25c-.32.31-.59.67-.82,1.05-.36.63-.6,1.32-.69,2.04-.09.69-.04,1.39.14,2.06.4,1.38,1.34,2.55,2.61,3.24.38.2.78.37,1.2.49h.38c.3.06.6.1.91.11h.38c.4,0,.79-.06,1.18-.16h0c.4-.11.79-.27,1.16-.47l.38.04c.27-.16.53-.35.76-.56l.27-.25c.31-.32.58-.67.82-1.05,1.52-2.58.66-5.91-1.92-7.43-.02-.01-.05-.03-.07-.04h0ZM49.81,16.17c-.32.56-.93.91-1.58.9-.32,0-.63-.09-.91-.25-.86-.5-1.16-1.6-.67-2.46.32-.56.93-.91,1.58-.9.32,0,.63.08.91.24.87.49,1.17,1.6.68,2.47,0,0,0,0,0,.01h0Z"/>
        <path class="cls-6" d="M13.39,17.49c4.71,0,12.9,1.81,21.85,7,13.43,7.72,18.43,16.8,18.32,18.92-1.17.52-2.46.74-3.73.63-4.69,0-12.88-1.81-21.74-7-4.92-2.8-9.4-6.32-13.26-10.45.39-.75.59-1.58.58-2.42,0-3-2.43-5.43-5.44-5.43h-.2c-.02-.2-.02-.4,0-.6,1.14-.49,2.38-.7,3.62-.61M13.39,13.91c-3.46,0-5.96.81-6.89,2.41s-.4,3.94,1.16,6.78c.09.13.24.21.4.2.14,0,.27-.05.36-.16.33-.48.87-.77,1.45-.78,1-.12,1.91.59,2.03,1.59s-.59,1.91-1.59,2.03c-.26.21-.32.57-.16.85,4.46,5.43,9.9,9.98,16.04,13.42,8.77,4.97,17.67,7.38,23.65,7.38,3.48,0,5.98-.81,6.9-2.41,2.5-4.32-5.82-15.88-19.68-23.88-8.77-5.06-17.67-7.47-23.67-7.47v.04Z"/>
        <path class="cls-6" d="M31.62,5.43c1.81.9,7.25,9.79,7.25,25.32.05,5.66-.78,11.29-2.45,16.69-.84.04-1.66.28-2.39.71-1.25.72-2.17,1.91-2.54,3.31-.37,1.39-.17,2.86.54,4.11v.09c-.15.14-.31.26-.49.36-1.81-.94-7.25-9.8-7.25-25.32s5.44-24.38,7.25-25.32M31.55,1.75c-5,0-10.87,12.95-10.87,28.94s5.87,28.94,10.87,28.94c1.67,0,3.44-1.45,5.06-3.98.24-.36-.4-1.09-.62-1.18-.37-.15-.69-.43-.89-.78-.49-.86-.19-1.96.67-2.46.27-.16.59-.25.91-.25.3,0,.59.07.85.22.2.09.42.13.63.13.33,0,.65-.09.74-.34,2.42-6.47,3.63-13.33,3.59-20.24,0-15.99-5.87-28.94-10.87-28.94l-.07-.05Z"/>
        <path class="cls-6" d="M53,17.89c.19.06.38.14.56.24.11,2.1-4.91,11.16-18.32,18.88-8.95,5.15-17.12,7-21.85,7-1.24.09-2.49-.13-3.62-.63-.2-2.08,4.73-11.16,18.23-18.88,4.88-2.86,10.18-4.96,15.69-6.24,1.01,1.53,2.72,2.44,4.55,2.44,1.94,0,3.74-1.03,4.71-2.71h0M51.08,13.93c-.54,0-1.03,1.81-1.27,2.24-.32.56-.93.91-1.58.9-.32,0-.63-.09-.91-.25-.86-.5-1.16-1.6-.67-2.46h-.43c-.77-.02-1.54.02-2.3.11-6.25,1.3-12.24,3.61-17.74,6.84C12.32,29.34,4,40.9,6.51,45.22c.92,1.59,3.42,2.41,6.89,2.41,6,0,14.9-2.42,23.67-7.47,13.86-7.99,22.18-19.55,19.68-23.88-.82-1.39-2.83-2.19-5.64-2.35h-.02Z"/>
      </g>
    </g>
  </g>
</svg>