<?xml version="1.0" encoding="UTF-8"?>
<svg id="Layer_2" xmlns="http://www.w3.org/2000/svg" xmlns:xlink="http://www.w3.org/1999/xlink" viewBox="0 0 60 60">
  <defs>
    <style>
      .cls-1, .cls-2, .cls-3 {
        fill: none;
      }

      .cls-4 {
        clip-path: url(#clippath-1);
      }

      .cls-2, .cls-3 {
        clip-rule: evenodd;
      }

      .cls-5 {
        clip-path: url(#clippath-2);
      }

      .cls-3 {
        clip-path: url(#clippath);
      }

      .cls-6 {
        fill: #7823dc;
      }
    </style>
    <clipPath id="clippath">
      <polygon class="cls-2" points="0 60 60 60 60 0 0 0 0 60 0 60"/>
    </clipPath>
    <clipPath id="clippath-1">
      <polygon class="cls-3" points="0 0 60 0 60 60 0 60 0 0 0 0"/>
    </clipPath>
    <clipPath id="clippath-2">
      <polygon class="cls-1" points="0 60 60 60 60 0 0 0 0 60 0 60"/>
    </clipPath>
  </defs>
  <g id="Layer_1-2" data-name="Layer_1">
    <g class="cls-4">
      <g class="cls-5">
        <path class="cls-6" d="M24.44,5.43c5.21.02,9.43,4.25,9.41,9.45,0,.85-.12,1.7-.35,2.52l-9.68,32.2c-1.22,3.89-4.86,6.53-8.95,6.48-.92.01-1.85-.11-2.74-.36-4.69-1.4-7.51-6.17-6.47-10.94l.11-.43.45-1.52L15.11,13.29l.43-1.45.18-.49c1.4-3.58,4.86-5.94,8.72-5.93M24.44,1.81c-5.37,0-10.19,3.31-12.1,8.32h0l-.67,2.17L2.75,41.78l-.65,2.17h0c-1.85,6.94,2.28,14.06,9.23,15.91,6.95,1.85,14.09-2.28,15.94-9.22l9.69-32.27c1.96-6.92-2.07-14.12-9-16.08-1.14-.32-2.33-.49-3.52-.49h0Z"/>
        <polygon class="cls-6" points="7.99 25.23 6.89 28.92 30.48 35.99 31.58 32.3 7.99 25.23 7.99 25.23 7.99 25.23 7.99 25.23"/>
        <path class="cls-6" d="M43.49,30.51c7.01,0,12.68,5.67,12.68,12.66s-5.68,12.66-12.68,12.66-12.68-5.67-12.68-12.66,5.68-12.66,12.68-12.66M43.49,26.9c-9.01,0-16.31,7.29-16.31,16.28s7.3,16.28,16.31,16.28,16.31-7.29,16.31-16.28-7.3-16.28-16.31-16.28h0Z"/>
        <polygon class="cls-6" points="55.25 36.95 29.5 46.34 30.75 49.74 56.5 40.35 55.25 36.95 55.25 36.95 55.25 36.95 55.25 36.95"/>
      </g>
    </g>
  </g>
</svg>