<?xml version="1.0" encoding="UTF-8"?>
<svg id="Layer_2" xmlns="http://www.w3.org/2000/svg" viewBox="0 0 59.16 59.04">
  <defs>
    <style>
      .cls-1 {
        fill: #7823dc;
        fill-rule: evenodd;
      }
    </style>
  </defs>
  <g id="Layer_1-2" data-name="Layer_1">
    <path class="cls-1" d="M44.41,40.71c-2.11,0-3.89,1.78-3.89,3.89v3.41c0,2.11,1.78,3.89,3.89,3.89h3.57v-11.19h-3.57ZM44.57,24.01c-.97,0-1.78.81-1.78,1.78s.81,1.78,1.78,1.78,1.78-.81,1.78-1.78-.81-1.78-1.78-1.78h0ZM11.35,24.01c-.97,0-1.78.81-1.78,1.78s.81,1.78,1.78,1.78,1.78-.81,1.78-1.78-.81-1.78-1.78-1.78h0ZM3.73,14.76v3.57h3.73v3.85l.79-.97c.88-.59,1.94-.93,3.1-.93,2.31,0,4.25,1.46,5.08,3.42l.1.47h9.41v-9.41H3.73ZM52.19,14.74v.02h-22.53v9.41h9.72l.11-.54c.83-1.98,2.77-3.35,5.08-3.35s4.35,1.46,5.22,3.49l.08.4h5.56v-3.73h-3.73v-3.73h3.73v-.97l-3.24-.99h0ZM29.66,3.73v7.3h14.43l-5.83-7.3h-8.59ZM14.26,3.73l-5.14,7.3h16.81V3.73h-11.67ZM12.32,0h27.72l7.62,9.41,11.51,3.73v14.76h-9.33l-.04.19c-.87,1.94-2.91,3.22-5.22,3.22s-4.25-1.37-5.08-3.35v-.05h-23.05v.05c-.84,1.98-2.78,3.35-5.09,3.35-1.15,0-2.22-.34-3.1-.93l-.79-.97v2.55c0,6.97,5.67,12.49,12.48,12.49h16.89l.56-2.81c1.15-2.74,3.86-4.65,7.02-4.65h3.57v-3.41h3.73v5.35h7.46v3.73h-7.46v7.3h7.46v3.73h-7.46v5.35h-3.73v-3.41h-3.57c-3.16,0-5.87-1.92-7.02-4.65l-.56-2.81h-16.89c-8.91,0-16.21-7.3-16.21-16.22v-4.05H0V11.03h4.56L12.32,0h0Z"/>
  </g>
</svg>