<?xml version="1.0" encoding="UTF-8"?>
<svg id="Layer_2" xmlns="http://www.w3.org/2000/svg" xmlns:xlink="http://www.w3.org/1999/xlink" viewBox="0 0 60 60">
  <defs>
    <style>
      .cls-1, .cls-2, .cls-3 {
        fill: none;
      }

      .cls-4 {
        clip-path: url(#clippath-1);
      }

      .cls-2, .cls-3 {
        clip-rule: evenodd;
      }

      .cls-5 {
        clip-path: url(#clippath-2);
      }

      .cls-3 {
        clip-path: url(#clippath);
      }

      .cls-6 {
        fill-rule: evenodd;
      }

      .cls-6, .cls-7 {
        fill: #7823dc;
      }
    </style>
    <clipPath id="clippath">
      <polygon class="cls-2" points="0 60 60 60 60 0 0 0 0 60 0 60"/>
    </clipPath>
    <clipPath id="clippath-1">
      <polygon class="cls-3" points="0 0 60 0 60 60 0 60 0 0 0 0"/>
    </clipPath>
    <clipPath id="clippath-2">
      <polygon class="cls-1" points="0 60 60 60 60 0 0 0 0 60 0 60"/>
    </clipPath>
  </defs>
  <g id="Layer_1-2" data-name="Layer_1">
    <g class="cls-4">
      <g class="cls-5">
        <polygon class="cls-7" points="59.8 54.99 59.8 59.69 38.78 43.05 40.95 40.15 59.8 54.99 59.8 54.99"/>
        <path class="cls-6" d="M25.19,5.43c10.87,0,19.75,8.86,19.75,19.72s-8.88,19.72-19.75,19.72S5.44,35.99,5.44,25.14,14.32,5.43,25.19,5.43M25.19,1.81C12.32,1.81,1.81,12.3,1.81,25.14s10.51,23.33,23.38,23.33,23.38-10.49,23.38-23.33S38.05,1.81,25.19,1.81h0Z"/>
      </g>
    </g>
  </g>
</svg>