<?xml version="1.0" encoding="UTF-8"?>
<svg id="Layer_2" xmlns="http://www.w3.org/2000/svg" xmlns:xlink="http://www.w3.org/1999/xlink" viewBox="0 0 58.92 59.04">
  <defs>
    <style>
      .cls-1, .cls-2, .cls-3 {
        fill: none;
      }

      .cls-4 {
        clip-path: url(#clippath-1);
      }

      .cls-2, .cls-3 {
        clip-rule: evenodd;
      }

      .cls-5 {
        clip-path: url(#clippath-2);
      }

      .cls-3 {
        clip-path: url(#clippath);
      }

      .cls-6 {
        fill: #7823dc;
      }
    </style>
    <clipPath id="clippath">
      <polygon class="cls-2" points="0 59.04 58.92 59.04 58.92 0 0 0 0 59.04 0 59.04"/>
    </clipPath>
    <clipPath id="clippath-1">
      <polygon class="cls-3" points="0 0 58.92 0 58.92 59.04 0 59.04 0 0 0 0"/>
    </clipPath>
    <clipPath id="clippath-2">
      <polygon class="cls-1" points="0 59.04 58.92 59.04 58.92 0 0 0 0 59.04 0 59.04"/>
    </clipPath>
  </defs>
  <g id="Layer_1-2" data-name="Layer_1">
    <g class="cls-4">
      <g class="cls-5">
        <path class="cls-6" d="M33.75,18.79l4.58-4.17-4.58-4.57V1.9H1.78v24.75h31.97v-7.85h0ZM30.2,17.23v5.86H5.33V5.45h24.87v6.09l2.98,2.97-2.98,2.72h0Z"/>
        <path class="cls-6" d="M26.75,33.94v8.17l-4.58,4.57,4.58,4.16v7.83h31.97v-24.75h-31.97v.02h0ZM55.17,55.14h-24.87v-5.86l-2.98-2.72,2.98-2.97v-6.09h24.87v17.64h0Z"/>
        <path class="cls-6" d="M49.74,12.48c2.93,0,5.33-2.4,5.33-5.33s-2.4-5.33-5.33-5.33-5.33,2.4-5.33,5.33,2.4,5.33,5.33,5.33h0ZM49.74,5.38c.98,0,1.78.8,1.78,1.78s-.8,1.78-1.78,1.78-1.78-.8-1.78-1.78.8-1.78,1.78-1.78h0Z"/>
        <polygon class="cls-6" points="44.41 17.17 49.74 24.28 55.06 17.17 55.06 26.64 58.62 26.64 58.62 12.43 54.18 12.43 49.74 18.36 45.29 12.43 40.85 12.43 40.85 26.64 44.41 26.64 44.41 17.17 44.41 17.17 44.41 17.17"/>
        <path class="cls-6" d="M5.33,39.25c0,2.93,2.4,5.33,5.33,5.33s5.33-2.4,5.33-5.33-2.4-5.33-5.33-5.33-5.33,2.4-5.33,5.33h0ZM12.44,39.25c0,.98-.8,1.78-1.78,1.78s-1.78-.8-1.78-1.78.8-1.78,1.78-1.78,1.78.8,1.78,1.78h0Z"/>
        <polygon class="cls-6" points="10.66 50.46 6.22 44.55 1.78 44.55 1.78 58.67 5.33 58.67 5.33 49.27 10.66 56.38 15.99 49.27 15.99 58.67 19.54 58.67 19.54 44.55 15.1 44.55 10.66 50.46 10.66 50.46 10.66 50.46"/>
        <path class="cls-6" d="M12.44,14.31c0,.98-.8,1.78-1.78,1.78s-1.78-.8-1.78-1.78c0-.98.8-1.78,1.78-1.78s1.78.8,1.78,1.78h0Z"/>
        <path class="cls-6" d="M19.54,14.31c0,.98-.8,1.78-1.78,1.78s-1.78-.8-1.78-1.78.8-1.78,1.78-1.78,1.78.8,1.78,1.78h0Z"/>
        <path class="cls-6" d="M26.65,14.31c0,.98-.8,1.78-1.78,1.78s-1.78-.8-1.78-1.78c0-.98.8-1.78,1.78-1.78s1.78.8,1.78,1.78h0Z"/>
        <path class="cls-6" d="M41.07,48.17h-2.79c.04,1.87,1.51,3.36,3.37,3.45v1.19h2.63v-1.17c1.88,0,3.39-1.53,3.39-3.41h0c0-2.06-1.31-2.86-3.39-3.22v-1.94c.32.21.52.57.53.94h2.7c-.07-1.74-1.49-3.13-3.25-3.16v-1.19h-2.63v1.19c-1.72.09-3.07,1.49-3.11,3.22,0,1.9.94,2.84,3.14,3.27v1.99c-.37-.27-.6-.71-.62-1.17l.02.02ZM44.3,47.75c.37.07.64.43.62.8,0,.41-.23.78-.62.94v-1.74h0ZM41.19,43.84c0-.32.18-.6.44-.75v1.49c-.28-.12-.48-.43-.44-.75h0Z"/>
      </g>
    </g>
  </g>
</svg>