<?xml version="1.0" encoding="UTF-8"?>
<svg id="Layer_2" xmlns="http://www.w3.org/2000/svg" xmlns:xlink="http://www.w3.org/1999/xlink" viewBox="0 0 60 60">
  <defs>
    <style>
      .cls-1, .cls-2, .cls-3 {
        fill: none;
      }

      .cls-4 {
        clip-path: url(#clippath-1);
      }

      .cls-2, .cls-3 {
        clip-rule: evenodd;
      }

      .cls-5 {
        clip-path: url(#clippath-2);
      }

      .cls-3 {
        clip-path: url(#clippath);
      }

      .cls-6 {
        fill: #7823dc;
      }
    </style>
    <clipPath id="clippath">
      <polygon class="cls-2" points="0 60 60 60 60 0 0 0 0 60 0 60"/>
    </clipPath>
    <clipPath id="clippath-1">
      <polygon class="cls-3" points="0 0 60 0 60 60 0 60 0 0 0 0"/>
    </clipPath>
    <clipPath id="clippath-2">
      <polygon class="cls-1" points="0 60 60 60 60 0 0 0 0 60 0 60"/>
    </clipPath>
  </defs>
  <g id="Layer_1-2" data-name="Layer_1">
    <g class="cls-4">
      <g class="cls-5">
        <polygon class="cls-6" points="19.93 19.9 41.68 19.9 41.68 23.51 19.93 23.51 19.93 19.9 19.93 19.9"/>
        <polygon class="cls-6" points="12.68 19.9 16.31 19.9 16.31 23.51 12.68 23.51 12.68 19.9 12.68 19.9"/>
        <polygon class="cls-6" points="19.93 27.13 41.68 27.13 41.68 30.75 19.93 30.75 19.93 27.13 19.93 27.13"/>
        <polygon class="cls-6" points="12.68 27.13 16.31 27.13 16.31 30.75 12.68 30.75 12.68 27.13 12.68 27.13"/>
        <polygon class="cls-6" points="19.93 34.37 41.68 34.37 41.68 37.98 19.93 37.98 19.93 34.37 19.93 34.37"/>
        <polygon class="cls-6" points="12.68 34.37 16.31 34.37 16.31 37.98 12.68 37.98 12.68 34.37 12.68 34.37"/>
        <polygon class="cls-6" points="19.93 41.6 41.68 41.6 41.68 45.22 19.93 45.22 19.93 41.6 19.93 41.6"/>
        <polygon class="cls-6" points="12.68 41.6 16.31 41.6 16.31 45.22 12.68 45.22 12.68 41.6 12.68 41.6"/>
        <polygon class="cls-6" points="19.93 48.84 41.68 48.84 41.68 52.45 19.93 52.45 19.93 48.84 19.93 48.84"/>
        <polygon class="cls-6" points="12.68 48.84 16.31 48.84 16.31 52.45 12.68 52.45 12.68 48.84 12.68 48.84"/>
        <polygon class="cls-6" points="52.55 10.67 52.55 59.69 56.17 59.69 56.17 10.67 54.36 1.81 52.55 10.67 52.55 10.67"/>
        <polygon class="cls-6" points="35.34 10.85 15.4 10.85 11.23 4.7 14.13 2.53 17.21 7.24 33.52 7.24 36.6 2.53 39.5 4.7 35.34 10.85 35.34 10.85"/>
        <path class="cls-6" d="M9.06,5.43h36.42v50.65H9.06V5.43h0ZM5.44,59.69h43.67V1.81H5.44v57.88h0Z"/>
      </g>
    </g>
  </g>
</svg>