<?xml version="1.0" encoding="UTF-8"?>
<svg id="Layer_2" xmlns="http://www.w3.org/2000/svg" xmlns:xlink="http://www.w3.org/1999/xlink" viewBox="0 0 60 60">
  <defs>
    <style>
      .cls-1, .cls-2, .cls-3 {
        fill: none;
      }

      .cls-4 {
        clip-path: url(#clippath-1);
      }

      .cls-2, .cls-3 {
        clip-rule: evenodd;
      }

      .cls-5 {
        clip-path: url(#clippath-2);
      }

      .cls-3 {
        clip-path: url(#clippath);
      }

      .cls-6 {
        fill: #7823dc;
      }
    </style>
    <clipPath id="clippath">
      <polygon class="cls-2" points="0 60 60 60 60 0 0 0 0 60 0 60"/>
    </clipPath>
    <clipPath id="clippath-1">
      <polygon class="cls-3" points="0 0 60 0 60 60 0 60 0 0 0 0"/>
    </clipPath>
    <clipPath id="clippath-2">
      <polygon class="cls-1" points="0 60 60 60 60 0 0 0 0 60 0 60"/>
    </clipPath>
  </defs>
  <g id="Layer_1-2" data-name="Layer_1">
    <g class="cls-4">
      <g class="cls-5">
        <path class="cls-6" d="M37.89,59.57l-7.25-4.11,1.2-6.02c-.11-.18-.22-.38-.33-.56l-5.83-1.9-.05-8.32,5.82-1.97c.05-.09.11-.2.16-.29.05-.09.11-.2.16-.29l-1.27-5.99,7.19-4.21,4.62,4.05h.65l4.57-4.11,7.25,4.11-1.2,6.02c.11.18.24.38.33.56l5.83,1.9.05,8.32-5.82,1.97c-.05.09-.11.2-.16.29h0c-.05.09-.11.2-.16.29l1.27,5.99-7.19,4.2-4.62-4.05h-.65l-4.57,4.12h0ZM34.72,53.6l2.7,1.54,3.77-3.38.78.07c.54.04,1.09.04,1.63,0l.78-.07,3.81,3.33,2.68-1.57-1.05-4.94.43-.63c.14-.22.31-.45.43-.69s.25-.49.36-.72l.33-.71,4.78-1.63-.02-3.09-4.8-1.57-.33-.71c-.22-.47-.51-.94-.82-1.39l-.45-.63.98-4.96-2.7-1.54-3.77,3.38-.78-.07c-.54-.05-1.09-.04-1.61,0l-.78.07-3.81-3.33-2.68,1.57,1.05,4.94-.45.65c-.14.22-.31.43-.43.67-.14.24-.25.49-.36.72l-.33.71-4.78,1.63.02,3.09,4.82,1.57.31.71c.22.47.49.94.82,1.39l.45.63-.98,4.96h0Z"/>
        <path class="cls-6" d="M12.2,35.66l-6.22-3.58,1.05-5.12c-.09-.14-.16-.27-.24-.42l-4.98-1.65v-7.16l4.95-1.65c.04-.07.09-.14.13-.22.04-.07.07-.14.13-.2l-1.05-5.12,6.22-3.58,3.91,3.45h.47l3.91-3.45,6.22,3.58-1.03,5.12c.07.13.16.27.24.42l4.97,1.65v7.16l-4.95,1.65c-.04.07-.07.14-.13.22v.02c-.04.07-.07.14-.13.2l1.05,5.1-6.22,3.58-3.91-3.45h-.47l-3.91,3.45h0ZM9.62,30.43l2.16,1.23,3.17-2.82.71.05c.45.04.91.04,1.36,0l.71-.05,3.17,2.8,2.16-1.25-.85-4.16.4-.58c.13-.18.25-.38.36-.56.11-.2.22-.4.31-.6l.29-.6,4.02-1.34v-2.48l-4.02-1.36-.29-.63c-.18-.4-.42-.8-.69-1.18l-.4-.58.85-4.16-2.14-1.21-3.19,2.8-.69-.05c-.45-.04-.92-.04-1.36,0l-.71.05-3.17-2.8-2.16,1.23.85,4.14-.4.58c-.13.18-.25.36-.36.56-.13.22-.22.42-.31.63l-.31.63-4.02,1.34v2.48l4.02,1.34.29.63c.18.4.42.8.67,1.16l.4.58-.83,4.16h0Z"/>
        <path class="cls-6" d="M43.54,10.68c-.29,0-.6.07-.87.24-.85.49-1.16,1.57-.67,2.42.33.58.92.9,1.56.9.29,0,.6-.07.87-.24.85-.49,1.16-1.57.67-2.42-.33-.58-.92-.9-1.56-.9h0Z"/>
        <path class="cls-6" d="M44.18,23.02l-2.12-2.75-2.99,1.77-4.35-3.76,1.32-3.2-3.03-1.7,1.09-5.64,3.44-.45-.04-3.47,5.44-1.88,2.12,2.75,2.99-1.77,4.35,3.76-1.32,3.2,3.03,1.7-1.09,5.64-3.44.45.04,3.47-5.44,1.88h0ZM41.64,16.31l.76.22c.24.07.49.11.74.14l.78.07,1.54,2.01.49-.16-.04-2.53.56-.54c.18-.18.34-.36.49-.56l.45-.63,2.52-.33.09-.52-2.21-1.25-.18-.76c-.04-.11-.05-.24-.11-.34-.04-.14-.09-.25-.14-.36l-.33-.71.98-2.35-.4-.34-2.19,1.3-.76-.22c-.24-.07-.47-.11-.72-.14l-.78-.07-1.56-2.01-.49.16.04,2.53-.56.54c-.18.16-.34.36-.49.56l-.43.63-2.52.33-.09.52,2.21,1.25.18.76c.04.13.05.24.11.36.04.11.09.24.14.34l.31.71-.96,2.33.4.34,2.17-1.28h0Z"/>
        <polygon class="cls-6" points="44.27 37.94 39.7 43.33 38.13 41.57 33.22 41.57 39.76 48.81 49.02 37.94 44.27 37.94 44.27 37.94"/>
        <path class="cls-6" d="M18.18,17.99c0,1-.81,1.81-1.81,1.81s-1.81-.81-1.81-1.81c0-1,.81-1.81,1.81-1.81s1.81.81,1.81,1.81h0Z"/>
        <polygon class="cls-6" points="14.17 20.61 12.27 25.66 20.33 25.73 18.5 20.65 17.34 20.97 15.33 20.95 14.17 20.61 14.17 20.61 14.17 20.61"/>
      </g>
    </g>
  </g>
</svg>