<?xml version="1.0" encoding="UTF-8"?>
<svg id="Layer_2" xmlns="http://www.w3.org/2000/svg" xmlns:xlink="http://www.w3.org/1999/xlink" viewBox="0 0 60 60">
  <defs>
    <style>
      .cls-1, .cls-2, .cls-3 {
        fill: none;
      }

      .cls-4 {
        clip-path: url(#clippath-1);
      }

      .cls-2, .cls-3 {
        clip-rule: evenodd;
      }

      .cls-5 {
        clip-path: url(#clippath-2);
      }

      .cls-3 {
        clip-path: url(#clippath);
      }

      .cls-6 {
        fill: #7823dc;
      }
    </style>
    <clipPath id="clippath">
      <polygon class="cls-2" points="0 60 60 60 60 0 0 0 0 60 0 60"/>
    </clipPath>
    <clipPath id="clippath-1">
      <polygon class="cls-3" points="0 0 60 0 60 60 0 60 0 0 0 0"/>
    </clipPath>
    <clipPath id="clippath-2">
      <polygon class="cls-1" points="0 60 60 60 60 0 0 0 0 60 0 60"/>
    </clipPath>
  </defs>
  <g id="Layer_1-2" data-name="Layer_1">
    <g class="cls-4">
      <g class="cls-5">
        <path class="cls-6" d="M9.06,1.81v57.88h47.11V1.81H9.06ZM52.55,56.07H12.68V5.43h39.87v50.65h0Z"/>
        <polygon class="cls-6" points="5.45 41.57 5.45 37.95 16.33 37.95 16.33 41.57 5.45 41.57 5.45 41.57"/>
        <polygon class="cls-6" points="5.45 48.75 5.45 45.13 16.33 45.13 16.33 48.75 5.45 48.75 5.45 48.75"/>
        <polygon class="cls-6" points="5.45 34.33 5.45 30.71 16.33 30.71 16.33 34.33 5.45 34.33 5.45 34.33"/>
        <polygon class="cls-6" points="5.45 27.1 5.45 23.48 16.33 23.48 16.33 27.1 5.45 27.1 5.45 27.1"/>
        <polygon class="cls-6" points="5.45 19.86 5.45 16.24 16.33 16.24 16.33 19.86 5.45 19.86 5.45 19.86"/>
        <polygon class="cls-6" points="5.47 12.68 5.47 9.06 16.34 9.06 16.34 12.68 5.47 12.68 5.47 12.68"/>
        <polygon class="cls-6" points="45.36 1.86 48.98 1.86 48.98 59.63 45.36 59.63 45.36 1.86 45.36 1.86"/>
      </g>
    </g>
  </g>
</svg>