<?xml version="1.0" encoding="UTF-8"?>
<svg id="Layer_2" xmlns="http://www.w3.org/2000/svg" xmlns:xlink="http://www.w3.org/1999/xlink" viewBox="0 0 60 60">
  <defs>
    <style>
      .cls-1, .cls-2, .cls-3 {
        fill: none;
      }

      .cls-4 {
        clip-path: url(#clippath-1);
      }

      .cls-2, .cls-3 {
        clip-rule: evenodd;
      }

      .cls-5 {
        clip-path: url(#clippath-2);
      }

      .cls-3 {
        clip-path: url(#clippath);
      }

      .cls-6 {
        fill: #7823dc;
      }
    </style>
    <clipPath id="clippath">
      <polygon class="cls-2" points="0 60 60 60 60 0 0 0 0 60 0 60"/>
    </clipPath>
    <clipPath id="clippath-1">
      <polygon class="cls-3" points="0 0 60 0 60 60 0 60 0 0 0 0"/>
    </clipPath>
    <clipPath id="clippath-2">
      <polygon class="cls-1" points="0 60 60 60 60 0 0 0 0 60 0 60"/>
    </clipPath>
  </defs>
  <g id="Layer_1-2" data-name="Layer_1">
    <g class="cls-4">
      <g class="cls-5">
        <path class="cls-6" d="M52.55,7.63v48.44H9.06V8.54l5.31,3.53,1.5.99,1.7-.6,9.15-3.22,9.22,6.38,2.1,1.41,2.07-1.37,10.62-7.11,1.81-.92M56.17,1.81l-7.25,3.62-10.87,7.24-10.78-7.45-10.96,3.83L5.44,1.81v57.88h50.74V1.81h0Z"/>
        <polygon class="cls-6" points="30.81 30.75 12.68 30.75 12.68 34.37 30.81 34.37 30.81 30.75 30.81 30.75 30.81 30.75 30.81 30.75"/>
        <polygon class="cls-6" points="30.81 37.98 12.68 37.98 12.68 41.6 30.81 41.6 30.81 37.98 30.81 37.98 30.81 37.98 30.81 37.98"/>
        <polygon class="cls-6" points="30.81 45.22 12.68 45.22 12.68 48.84 30.81 48.84 30.81 45.22 30.81 45.22 30.81 45.22 30.81 45.22"/>
        <polygon class="cls-6" points="30.81 23.51 12.68 23.51 12.68 27.13 30.81 27.13 30.81 23.51 30.81 23.51 30.81 23.51 30.81 23.51"/>
        <path class="cls-6" d="M44.27,30.75h-3.62v1.65c-2.37.1-4.25,2.01-4.31,4.38,0,2.62,1.3,3.91,4.31,4.49v2.82c-.52-.37-.84-.97-.85-1.61h-3.79c.05,2.55,2.08,4.63,4.64,4.74v1.63h3.62v-1.61c2.59-.02,4.68-2.13,4.66-4.72,0,0,0-.01,0-.02,0-2.79-1.81-3.89-4.66-4.38v-2.7c.44.29.71.78.74,1.3h3.71c-.1-2.4-2.05-4.3-4.46-4.34v-1.63h0ZM40.64,37.51c-.41-.18-.66-.6-.62-1.05,0-.43.24-.82.62-1.03v2.08h0ZM44.27,44.22v-2.39c.52.11.88.58.85,1.1,0,.56-.33,1.07-.85,1.28h0Z"/>
      </g>
    </g>
  </g>
</svg>