<?xml version="1.0" encoding="UTF-8"?>
<svg id="Layer_2" xmlns="http://www.w3.org/2000/svg" xmlns:xlink="http://www.w3.org/1999/xlink" viewBox="0 0 60.48 60.48">
  <defs>
    <style>
      .cls-1, .cls-2, .cls-3 {
        fill: none;
      }

      .cls-4 {
        clip-path: url(#clippath-1);
      }

      .cls-2, .cls-3 {
        clip-rule: evenodd;
      }

      .cls-5 {
        clip-path: url(#clippath-2);
      }

      .cls-3 {
        clip-path: url(#clippath);
      }

      .cls-6 {
        fill: #7823dc;
      }
    </style>
    <clipPath id="clippath">
      <polygon class="cls-2" points="0 60.48 60.48 60.48 60.48 0 0 0 0 60.48 0 60.48"/>
    </clipPath>
    <clipPath id="clippath-1">
      <polygon class="cls-3" points="0 0 60.48 0 60.48 60.48 0 60.48 0 0 0 0"/>
    </clipPath>
    <clipPath id="clippath-2">
      <polygon class="cls-1" points="0 60.48 60.48 60.48 60.48 0 0 0 0 60.48 0 60.48"/>
    </clipPath>
  </defs>
  <g id="Layer_1-2" data-name="Layer_1">
    <g class="cls-4">
      <g class="cls-5">
        <path class="cls-6" d="M55.53,34.83l-15.71,4.94v-6.31l-4.06.46-5.98.67-9.43-3.36-1.53-.54-1.43.76-5.9,3.15H1.83v18.29h9.72l17.97,7.27,28.83-15,1.93-1.03v-10.8l-4.75,1.49h0ZM56.62,41.95l-27.28,14.17-17.05-6.88h-6.82v-11h6.93l6.71-3.59,10.23,3.65,6.82-.77v3.65l-1.98.64-6.87,1.39v3.38l7.22-1.33v-.02s22.09-6.95,22.09-6.95v3.65h0Z"/>
        <path class="cls-6" d="M25.37,21.15l-.12-.82h-3.67l.11,1.06c.33,3.97,3.48,7.13,7.46,7.49v2.13h3.66v-2.04c4.63-.48,7.46-3.23,7.46-7.35,0-5-3.44-6.32-7.46-7.1v-7.12c1.63.35,2.87,1.68,3.12,3.33l.17.76h3.68l-.19-1.13c-.43-3.49-3.27-6.18-6.78-6.43V1.79h-3.66v2.09c-3.39.53-6.72,2.77-6.72,6.77,0,4.24,2.55,5.8,6.72,6.75v7.98c-2.06-.42-3.59-2.15-3.77-4.24h0ZM29.13,7.33v6.43c-2.62-.74-3.12-1.66-3.12-3.19.08-1.71,1.41-3.1,3.12-3.24h0ZM32.79,25.57v-7.39c2.92.71,3.76,1.6,3.76,3.63,0,2.54-1.87,3.47-3.76,3.77h0Z"/>
      </g>
    </g>
  </g>
</svg>