<?xml version="1.0" encoding="UTF-8"?>
<svg id="Layer_2" xmlns="http://www.w3.org/2000/svg" xmlns:xlink="http://www.w3.org/1999/xlink" viewBox="0 0 60.48 60.48">
  <defs>
    <style>
      .cls-1, .cls-2, .cls-3 {
        fill: none;
      }

      .cls-4 {
        clip-path: url(#clippath-1);
      }

      .cls-2, .cls-3 {
        clip-rule: evenodd;
      }

      .cls-5 {
        clip-path: url(#clippath-2);
      }

      .cls-3 {
        clip-path: url(#clippath);
      }

      .cls-6 {
        fill: #7823dc;
      }
    </style>
    <clipPath id="clippath">
      <polygon class="cls-2" points="0 60.48 60.48 60.48 60.48 0 0 0 0 60.48 0 60.48"/>
    </clipPath>
    <clipPath id="clippath-1">
      <polygon class="cls-3" points="0 0 60.48 0 60.48 60.48 0 60.48 0 0 0 0"/>
    </clipPath>
    <clipPath id="clippath-2">
      <polygon class="cls-1" points="0 60.48 60.48 60.48 60.48 0 0 0 0 60.48 0 60.48"/>
    </clipPath>
  </defs>
  <g id="Layer_1-2" data-name="Layer_1">
    <g class="cls-4">
      <g class="cls-5">
        <path class="cls-6" d="M55.53,34.83l-15.71,4.94v-6.31l-4.06.46-5.98.67-9.43-3.36-1.53-.54-1.43.76-5.9,3.15H1.83v18.29h9.72l17.97,7.27,28.83-15,1.93-1.03v-10.8l-4.75,1.49h0ZM56.62,41.95l-27.28,14.17-17.05-6.88h-6.82v-11h6.93l6.71-3.59,10.23,3.65,6.82-.77v3.65l-1.98.64-6.87,1.39v3.38l7.22-1.33v-.02s22.09-6.95,22.09-6.95v3.65h0Z"/>
        <path class="cls-6" d="M37.48,22.91c-1.05,1.61-2.8,2.61-4.72,2.7-3.8-.02-6.89-4.53-6.89-10.07s3.1-10.07,6.87-10.07c1.93.09,3.69,1.09,4.74,2.7l.31.47h4.28l-.96-1.57c-1.65-3.1-4.82-5.1-8.33-5.25-5.83,0-10.57,6.16-10.57,13.72s4.74,13.72,10.57,13.72c3.51-.15,6.68-2.15,8.32-5.26l.94-1.56h-4.26l-.31.47h0Z"/>
        <polygon class="cls-6" points="18.24 9.12 33.02 9.12 33.02 12.77 18.24 12.77 18.24 9.12 18.24 9.12"/>
        <polygon class="cls-6" points="18.24 16.4 33.02 16.4 33.02 20.04 18.24 20.04 18.24 16.4 18.24 16.4"/>
      </g>
    </g>
  </g>
</svg>