<?xml version="1.0" encoding="UTF-8"?>
<svg id="Layer_2" xmlns="http://www.w3.org/2000/svg" xmlns:xlink="http://www.w3.org/1999/xlink" viewBox="0 0 60 58.44">
  <defs>
    <style>
      .cls-1, .cls-2, .cls-3 {
        fill: none;
      }

      .cls-4 {
        clip-path: url(#clippath-1);
      }

      .cls-2, .cls-3 {
        clip-rule: evenodd;
      }

      .cls-5 {
        clip-path: url(#clippath-2);
      }

      .cls-3 {
        clip-path: url(#clippath);
      }

      .cls-6 {
        fill: #7823dc;
      }
    </style>
    <clipPath id="clippath">
      <polygon class="cls-2" points="0 58.44 60 58.44 60 0 0 0 0 58.44 0 58.44"/>
    </clipPath>
    <clipPath id="clippath-1">
      <polygon class="cls-3" points="0 0 60 0 60 58.44 0 58.44 0 0 0 0"/>
    </clipPath>
    <clipPath id="clippath-2">
      <polygon class="cls-1" points="0 58.44 60 58.44 60 0 0 0 0 58.44 0 58.44"/>
    </clipPath>
  </defs>
  <g id="Layer_1-2" data-name="Layer_1">
    <g class="cls-4">
      <g class="cls-5">
        <path class="cls-6" d="M27.26,57.96c-14,0-25.45-11.13-25.45-24.74S13.26,8.48,27.26,8.48h1.82v22.97h23.63v1.77c0,13.61-11.45,24.74-25.45,24.74M25.44,12.19c-11.27.88-20,10.07-20,21.21s9.82,21.21,21.81,21.21,20.72-8.66,21.81-19.44h-23.63V12.19h0Z"/>
        <path class="cls-6" d="M39.44,1.94l-6.91,6.72v19.44h27.27v-1.77c0-12.02-8.73-22.09-20.36-24.39M36.17,24.38V4.94c10.54.88,19.09,9.01,20,19.44h-20Z"/>
      </g>
    </g>
  </g>
</svg>