<?xml version="1.0" encoding="UTF-8"?>
<svg id="Layer_2" xmlns="http://www.w3.org/2000/svg" xmlns:xlink="http://www.w3.org/1999/xlink" viewBox="0 0 60 60">
  <defs>
    <style>
      .cls-1, .cls-2, .cls-3 {
        fill: none;
      }

      .cls-4 {
        clip-path: url(#clippath-1);
      }

      .cls-2, .cls-3 {
        clip-rule: evenodd;
      }

      .cls-5 {
        clip-path: url(#clippath-2);
      }

      .cls-3 {
        clip-path: url(#clippath);
      }

      .cls-6 {
        fill: #7823dc;
      }
    </style>
    <clipPath id="clippath">
      <polygon class="cls-2" points="0 60 60 60 60 0 0 0 0 60 0 60"/>
    </clipPath>
    <clipPath id="clippath-1">
      <polygon class="cls-3" points="0 0 60 0 60 60 0 60 0 0 0 0"/>
    </clipPath>
    <clipPath id="clippath-2">
      <polygon class="cls-1" points="0 60 60 60 60 0 0 0 0 60 0 60"/>
    </clipPath>
  </defs>
  <g id="Layer_1-2" data-name="Layer_1">
    <g class="cls-4">
      <g class="cls-5">
        <path class="cls-6" d="M40.59,13.93h-3.62v1.63c-2.36.18-4.17,1.99-4.35,4.34,0,2.71,1.27,3.98,4.35,4.52v2.71c-.54-.36-.91-.9-.91-1.63h-3.81c0,2.53,1.99,4.7,4.71,4.7v1.63h3.62v-1.63c2.54,0,4.71-2.17,4.71-4.7h0c0-2.89-1.81-3.98-4.71-4.34v-2.53c.36.36.72.72.72,1.27h3.62c-.18-2.35-1.99-4.34-4.53-4.34v-1.63h.18ZM36.97,20.62c-.36-.18-.72-.54-.72-1.09,0-.36.18-.9.54-1.09l.18,2.17h0ZM40.59,27.31v-2.35c.54.18.91.54.91,1.09s-.36,1.09-.91,1.27"/>
        <path class="cls-6" d="M39.87,43.77c-1.99,6.15-7.25,10.85-13.77,11.94-.91.18-1.99.18-2.9.18-9.6,0-17.4-7.78-17.4-17.36,0-.9.18-1.99.18-2.89,1.09-6.51,5.62-11.76,11.96-13.75,0-.9.18-1.81.36-2.71,0-.36.18-.9.18-1.27C7.07,20.26-.18,31.47,2.36,42.87c2.17,9.77,10.87,16.82,20.84,16.64,1.09,0,2.36-.18,3.44-.36,8.52-1.45,15.22-7.78,17.03-16.1-.36.18-.91.18-1.27.18-.72.54-1.63.54-2.54.54"/>
        <path class="cls-6" d="M19.75,31.65c-1.63.54-2.9,2.17-2.9,3.98,0,2.71,1.27,3.98,4.35,4.52v2.71c-.54-.36-.91-.9-.91-1.63h-3.62c0,2.53,2.17,4.7,4.71,4.7v1.63h3.62v-1.63c2.54,0,4.53-1.99,4.71-4.34-3.44-1.63-6.16-4.16-8.34-7.24v1.99c-.36-.18-.72-.54-.54-1.09,0-.36.18-.72.54-1.09-.72-.72-1.09-1.63-1.63-2.53M25.01,43.05v-2.35c.54.18.91.54.91,1.09-.18.54-.54,1.09-.91,1.27"/>
        <path class="cls-6" d="M38.78,1.81c-9.79,0-18.3,6.87-20.48,16.28,0,.36-.18.9-.18,1.27-.18.9-.18,1.81-.36,2.71v.9c0,3.07.72,5.97,1.99,8.86.36.9.91,1.81,1.45,2.71,1.99,3.07,4.89,5.61,8.34,7.42,2.9,1.45,6.16,2.17,9.42,2.17h.72c.91,0,1.81-.18,2.72-.36.36,0,.72-.18,1.27-.18,11.23-2.71,18.3-13.93,15.58-25.32C57.08,8.68,48.56,1.99,38.78,1.81M44.03,39.43c-.72.18-1.45.36-2.36.54l-1.27.18h-1.63c-9.6,0-17.4-7.78-17.4-17.36v-1.63c0-.54.18-.9.18-1.27.18-.72.36-1.63.54-2.35,2.9-9.22,12.68-14.11,21.93-11.21,9.24,2.89,14.13,12.66,11.23,21.89-1.63,5.43-5.8,9.59-11.23,11.21h0Z"/>
      </g>
    </g>
  </g>
</svg>