<?xml version="1.0" encoding="UTF-8"?>
<svg id="Layer_2" xmlns="http://www.w3.org/2000/svg" xmlns:xlink="http://www.w3.org/1999/xlink" viewBox="0 0 60 60">
  <defs>
    <style>
      .cls-1, .cls-2, .cls-3 {
        fill: none;
      }

      .cls-4 {
        clip-path: url(#clippath-1);
      }

      .cls-2, .cls-3 {
        clip-rule: evenodd;
      }

      .cls-5 {
        clip-path: url(#clippath-2);
      }

      .cls-3 {
        clip-path: url(#clippath);
      }

      .cls-6 {
        fill: #7823dc;
      }
    </style>
    <clipPath id="clippath">
      <polygon class="cls-2" points="0 60 60 60 60 0 0 0 0 60 0 60"/>
    </clipPath>
    <clipPath id="clippath-1">
      <polygon class="cls-3" points="0 0 60 0 60 60 0 60 0 0 0 0"/>
    </clipPath>
    <clipPath id="clippath-2">
      <polygon class="cls-1" points="0 60 60 60 60 0 0 0 0 60 0 60"/>
    </clipPath>
  </defs>
  <g id="Layer_1-2" data-name="Layer_1">
    <g class="cls-4">
      <g class="cls-5">
        <path class="cls-6" d="M33.78,9.04c0-4.12,5.6-7.24,13.01-7.24s13.01,3.11,13.01,7.24-5.6,7.23-13.01,7.23-13.01-3.11-13.01-7.23h0ZM37.4,9.04c0,1.45,3.75,3.62,9.39,3.62s9.39-2.17,9.39-3.62-3.75-3.62-9.39-3.62-9.39,2.17-9.39,3.62h0Z"/>
        <path class="cls-6" d="M46.79,23.51c7.41,0,13.01-3.11,13.01-7.24h-3.62c0,1.45-3.75,3.62-9.39,3.62s-9.39-2.17-9.39-3.62h-3.62c0,4.12,5.6,7.24,13.01,7.24h0Z"/>
        <path class="cls-6" d="M46.79,30.75c7.41,0,13.01-3.11,13.01-7.24h-3.62c0,1.45-3.75,3.62-9.39,3.62s-9.39-2.17-9.39-3.62h-3.62c0,4.12,5.6,7.24,13.01,7.24h0Z"/>
        <path class="cls-6" d="M46.79,37.98c7.41,0,13.01-3.11,13.01-7.24h-3.62c0,1.45-3.75,3.62-9.39,3.62s-9.39-2.17-9.39-3.62h-3.62c0,4.12,5.6,7.24,13.01,7.24h0Z"/>
        <path class="cls-6" d="M46.79,45.22c7.41,0,13.01-3.11,13.01-7.24h-3.62c0,1.45-3.75,3.62-9.39,3.62s-9.39-2.17-9.39-3.62h-3.62c0,4.12,5.6,7.24,13.01,7.24h0Z"/>
        <path class="cls-6" d="M46.79,52.45c7.41,0,13.01-3.11,13.01-7.23h-3.62c0,1.45-3.75,3.62-9.39,3.62s-9.39-2.17-9.39-3.62h-3.62c0,4.12,5.6,7.23,13.01,7.23h0Z"/>
        <path class="cls-6" d="M46.79,59.69c7.41,0,13.01-3.11,13.01-7.24h-3.62c0,1.45-3.75,3.62-9.39,3.62s-9.39-2.17-9.39-3.62h-3.62c0,4.12,5.6,7.24,13.01,7.24h0Z"/>
        <polygon class="cls-6" points="59.8 52.82 56.17 52.82 56.17 9.04 59.8 9.04 59.8 52.82 59.8 52.82"/>
        <polygon class="cls-6" points="37.42 52.82 33.8 52.82 33.8 9.04 37.42 9.04 37.42 52.82 37.42 52.82"/>
        <path class="cls-6" d="M1.81,16.28c0-4.12,5.6-7.23,13.01-7.23s13.01,3.11,13.01,7.23-5.6,7.24-13.01,7.24S1.81,20.4,1.81,16.28h0ZM5.44,16.28c0,1.45,3.75,3.62,9.39,3.62s9.39-2.17,9.39-3.62-3.75-3.62-9.39-3.62-9.39,2.17-9.39,3.62h0Z"/>
        <path class="cls-6" d="M14.82,30.75c7.41,0,13.01-3.11,13.01-7.24h-3.62c0,1.45-3.75,3.62-9.39,3.62s-9.39-2.17-9.39-3.62H1.81c0,4.12,5.6,7.24,13.01,7.24h0Z"/>
        <path class="cls-6" d="M14.82,37.98c7.41,0,13.01-3.11,13.01-7.24h-3.62c0,1.45-3.75,3.62-9.39,3.62s-9.39-2.17-9.39-3.62H1.81c0,4.12,5.6,7.24,13.01,7.24h0Z"/>
        <path class="cls-6" d="M14.82,45.22c7.41,0,13.01-3.11,13.01-7.24h-3.62c0,1.45-3.75,3.62-9.39,3.62s-9.39-2.17-9.39-3.62H1.81c0,4.12,5.6,7.24,13.01,7.24h0Z"/>
        <path class="cls-6" d="M14.82,52.45c7.41,0,13.01-3.11,13.01-7.23h-3.62c0,1.45-3.75,3.62-9.39,3.62s-9.39-2.17-9.39-3.62H1.81c0,4.12,5.6,7.23,13.01,7.23h0Z"/>
        <path class="cls-6" d="M14.82,59.69c7.41,0,13.01-3.11,13.01-7.24h-3.62c0,1.45-3.75,3.62-9.39,3.62s-9.39-2.17-9.39-3.62H1.81c0,4.12,5.6,7.24,13.01,7.24h0Z"/>
        <polygon class="cls-6" points="27.82 52.67 24.19 52.67 24.19 16.28 27.82 16.28 27.82 52.67 27.82 52.67"/>
        <polygon class="cls-6" points="5.44 52.67 1.81 52.67 1.81 16.28 5.44 16.28 5.44 52.67 5.44 52.67"/>
      </g>
    </g>
  </g>
</svg>